<?xml version="1.0" encoding="utf-8"?>
<!-- Generator: Adobe Illustrator 19.0.0, SVG Export Plug-In . SVG Version: 6.00 Build 0)  -->
<svg version="1.1" id="图形" xmlns="http://www.w3.org/2000/svg" xmlns:xlink="http://www.w3.org/1999/xlink" x="0px" y="0px"
	 viewBox="202 -80.8 1000.6 1000.7" fill="#ede4d3" style="enable-background:new 202 -80.8 1000.6 1000.7;" xml:space="preserve">
<g>
	<path d="M642.8,840.6c0-1.4-0.2-2.9,0-4.3c0.2-1.2,0.6-2.7,1.4-3.4c2.5-1.9,3.2-4.7,3.7-7.4c0.5-3,1.6-5.4,3.9-7.4
		c1.7-1.5,2.7-3.3,3.2-5.6c0.5-2.1,1.5-4.2,2.7-6c1.1-1.6,1.4-3.2,1.4-5.1c0-3.9,0.5-7.7,1.2-11.5c1-5.3,1.3-10.9-0.5-16.2
		c-3.2-9.3-6.6-18.6-9.7-27.9c-1.3-3.9-2.1-8-3.1-12c-0.3-1.1-0.5-2.3-0.9-3.4c-2.1-4.7-2.9-9.7-3.5-14.7c-0.8-6.5-4-11.4-9.2-15.2
		c-2.5-1.8-5.2-3.4-8-4.9c-1.9-1-3-2.3-3.6-4.3c-1.4-4.5-4.6-7.2-8.9-8.5c-4-1.3-8.1-2.6-12.5-1c-2,0.7-4.3,0.5-6.7,0.8
		c-1.2-2.9-0.3-5.8,0.8-8.5c0.9-2.2,2.2-4.2,3.2-6.3c3.7-8,7.2-16.1,11.2-24c2.7-5.3,5.9-10.4,9-15.5c0.8-1.3,2.1-2.4,3.3-3.3
		c2.4-1.7,3.5-1.6,5.9,0.2c5.3,4,10.6,7.8,15.9,11.8c2.4,1.8,4.7,3.7,6.8,5.8c4.1,3.9,9,6.6,13.6,9.7c3.9,2.5,7.8,5.3,10,9.6
		c2.5,4.9,5.8,5.9,11.3,3.3c2.3-1.1,4.4-1.3,6.6,0.1c6.6,4.2,13.7,3.3,21.1,2.4c5.4-0.7,9.5-3,13.2-6.5c2.2-2,4.2-4.3,6.2-6.5
		c2.4-2.7,4.7-5.5,7.1-8.3c1.2-1.4,2.7-1.7,4.2-0.7c1.6,1.1,3.2,2.3,4.3,3.8c2.8,3.9,5.3,8,7.9,12c4.6,7.2,9.2,14.4,13.9,21.6
		c1.1,1.6,2.1,3.3,3.4,4.7c0.8,1,1.9,1.8,3,2.3c2.4,1,4.4,0.1,4.7-2.4c0.7-5.9,3.7-11.4,2.8-17.6c-0.2-1.2,0.5-2.5,0.8-3.8
		c1.1-5,1.3-10.3,3.4-15.1c0.3-0.8,0.2-1.8,0.1-2.7c-0.6-5.8,1.4-11.3,2-16.9c0.5-4.5,1.7-8.9,2.2-13.4c0.2-1.8-0.4-3.8-0.8-5.7
		c-0.4-1.7,0.1-2.9,0.8-4.4c1.2-2.3,2.1-4.7,2.8-7.2c0.9-3.1,1.4-6.3,2-9.5c0.3-1.5,0.4-3.1,0.6-4.6c0.5-4.6,1-9.2,1.5-13.9
		c0.4-3.6,0.9-7.2,1-10.8c0.2-5.2,0-10.4,0-15.7c0-3.4-0.2-6.9-0.2-10.3c-0.1-6-1-12.1-3.9-17.7c-1.9-3.7-3.4-7.6-4.9-11.4
		c-0.5-1.2-0.3-2.7-0.5-4c4.5-0.4,7.8,2.1,8.8,7.1c0.3,1.6,1.1,3.2,2.1,4.5c1.9,2.6,4,5.2,6.4,7.3c5.6,5.1,11.1,10.4,17.2,15
		c4.6,3.5,9.2,7.2,14.1,10.3c3.8,2.5,7.7,4.8,11.7,7c12.2,6.9,24.4,14,36.8,20.5c11.9,6.2,24.1,11.8,36.1,17.8
		c11.9,5.9,23.8,11.9,35.7,17.8c12,5.9,24.1,11.7,36.2,17.2c11.7,5.4,23.5,10.3,35.3,15.5c7.5,3.3,14.9,6.7,22.4,9.9
		c2.2,1,3.9,2.3,5.2,4.4c2.7,4.4,5.7,8.6,8.6,13c0.7,1.1,1.4,2.3,1.6,3.5c0.5,4.4,0.7,8.8,0.9,13.2c0.3,5.8,0.2,11.7,1.1,17.5
		c0.6,3.8,0.4,7.5,0.8,11.2c0.6,5.1,1.4,10.2,2.6,15.2c2.1,8.6,5.6,16.7,8.6,24.9c0.7,1.8,1.2,3.7,1.6,5.6c0.4,2.4,0.7,4.9,0.9,7.3
		c0.6,5.5,1.2,11,1.8,16.6c0.2,2.2,0.6,4.3,0.9,6.5c0.3,2.6,0.6,5.1,0.9,7.7c0.6,5.4,1.1,10.8,1.7,16.2c0.5,5,1.2,10,1.7,15
		c0.3,3,0.5,5.9,0.8,8.9c-111.8,0-223.5,0-335.3,0c0.2-2.2,0.4-4.4,0.7-6.5c0.6-4.1,1.2-8.2,1.9-12.2c0.4-2.7,0.7-5.4,1.4-8
		c2-6.9,2.8-13.9,3.8-20.9c0.5-3.7,0.7-7.5,1.7-11.1c2.4-8.3,4.2-16.6,3.6-25.3c0-0.6,0-1.3,0.2-1.9c2.3-6.1,1.5-12.5,2.2-18.8
		c0.3-3.2,0.5-6.4,1.4-9.6c0.5-1.7,1.5-3.7,1-5.2c-1.3-4.9,0.1-9.4,0.8-14.2c0.5-3.8-0.1-7.8-3.3-10.7c-1.9-1.7-4.2-1.7-5.8,0.3
		c-1.8,2.1-3.5,4.2-5.1,6.4c-1.8,2.5-3.9,4.3-6.9,5.4c-4,1.5-7.8,3.6-9.7,7.8c-0.9,1.9-2.7,2.8-4.7,3.2c-2.4,0.5-5,0.5-7.2,1.4
		c-3.5,1.5-6.8,3.7-10.2,5.5c-2.3,1.2-3.9,3.1-4.6,5.5c-1.2,4.2-1.7,8.3-0.4,12.6c0.3,1.1,0,2.6-0.3,3.8c-1.2,5.1-2.3,10.1-2.1,15.3
		c0.2,4.9,0.1,9.8,0.7,14.8c0.7,5.9,2.6,11.3,5.6,16.3c2.1,3.4,5,6.4,6.7,10c1.9,4.1,3.7,8.1,5.9,12c2.2,3.9,3.2,8.3,5.2,12.4
		c1.6,3.3,1.1,7.4,3.5,10.5c0.2,0.2-0.1,0.8-0.1,1.1c-18,0-36,0-54.1,0c0.2-1.3,0.4-2.5,0.6-3.8c0.3-2.2-0.6-3.7-2.8-4.6
		c-1,1.3-0.7,2.4-0.1,3.6c0.7,1.5,1.1,3.2,1.6,4.7C673.1,840.6,657.9,840.6,642.8,840.6z"/>
	<path d="M284.8,840.6c0.9-3.4,1.9-6.7,2.6-10.1c1.1-5.2,1.9-10.4,3-15.6c1.3-5.9,2.7-11.8,2.3-18c-0.3-4.4,0.1-8.9-0.1-13.3
		c-0.3-5.3,1.1-10.3,2.1-15.3c1.7-8.6,3.6-17.1,5.1-25.8c1.3-7.9,1.4-15.7,1.6-23.6c0.1-6.2,0.3-12.5,0.9-18.7
		c0.4-4.8,1.8-9.3,3.8-13.7c1.6-3.4,2.9-6.9,4.8-10.2c1.8-3.3,4-6.3,6.1-9.4c0.7-0.9,1.6-1.7,2.6-2.4c12.8-8.9,25.8-17.4,39.9-24.1
		c13.2-6.2,26.1-12.9,39.3-19.1c8-3.7,16.2-6.9,24.4-10.2c9-3.7,18.1-7.2,26.9-11.2c12.2-5.5,24.3-11.3,36.4-16.9
		c10.7-5,21.5-9.9,32.2-14.8c1.2-0.5,2.4-0.9,3.6-1.4c5.1-2.2,9.5-5.1,13.3-9.3c4.2-4.6,8.9-8.8,13.2-13.3c3.1-3.2,6-6.5,8.9-9.8
		c0.5-0.5,0.7-1.3,1-2c1.6-4,3.2-7.9,4.9-11.9c0.8-2,2-3.5,3.9-4.7c3.3-2,6.4-4.5,9.6-6.7c0.5-0.3,1.2-0.3,2.5-0.6
		c-1,5.3-1.4,10.5-3,15.2c-2.6,7.5-3.9,15.3-5,23.1c-0.6,4.6-1.6,9.1-2.3,13.7c-0.2,1-0.2,2.1-0.2,3.1c0,4.4,0.1,8.9,0,13.3
		c-0.2,7.1-0.7,14.3-0.8,21.4c0,5.4,0.7,10.9,0.7,16.3c0,3.9-0.6,7.7-0.7,11.6c-0.1,2.2,0.4,4.4,0.7,6.5c0.1,0.6,0.2,1.4,0.1,1.9
		c-1.4,4.2-0.8,8.6-0.7,12.8c0.2,5,1.2,10,1.5,15c0.3,4.2,0.4,8.4-0.1,12.5c-0.6,5.6-0.9,10.9,0.7,16.4c0.7,2.4,0.4,5.2,0.3,7.8
		c-0.1,2.7,0.3,5.2,1.6,7.5c1.6,2.8,1.4,5.8,0.8,8.7c-0.8,3.2-0.7,6.3,0,9.6c0.5,2.4,0.3,4.9,0.2,7.4c0,0.6-0.7,1.3-1.1,1.9
		c-1.2,1.8-1.9,3.5-1.8,6c0.2,3.2-1.1,6.5-2.1,9.7c-0.5,1.7-0.6,3,0.7,4.3c1.2-0.2,2.4-0.3,3.8-0.5c0.6-1,1.3-2.1,2.1-3.4
		c1.3,1.4,1.5,2.4,0,3.5c-2.4,1.8-4.2,6-4.1,9c0.1,1.6,0.1,3.5-0.6,4.9c-1.5,2.9-0.8,5.4,0.9,7.6c1.9,2.5,1.9,5.2,0.6,7.7
		c-1.7,3.2-0.9,6,0.9,8.7c1.1,1.6,2.5,3,3.6,4.6c0.7,1,1.2,2.2,1.4,3.4c0.6,3.3-0.7,5.8-3.8,7.3c-0.6,0.3-1,0.7-1.7,1.1
		c0.4,0.6,0.6,1.1,1,1.3c1.9,1.1,3.5,2.1,2.5,4.9c-0.3,0.7,0.7,2.1,1.4,2.9c2.8,3.1,3.4,5,0.8,8.1c-2.6,3-1.7,6.5-2,9.7
		c-0.1,1.7,2.2,3.6,3.5,5.4C481.1,840.6,383,840.6,284.8,840.6z"/>
	<path d="M651.1,405.5c-3.1,0.5-4.2-1.2-5.2-3.3c-0.8-1.8-2-3.3-3-5c-1.3-2.4-1.4-4.9-0.1-7.5c1.7-3.2,3.1-6.6,5-9.6
		c0.9-1.4,2.6-2.5,4.1-3.4c1.7-1,3-0.3,2.9,1.6c-0.2,2.7-1,5.3-1.5,7.9c-0.4,2-0.8,4-1,6.1c-0.2,1.5,0.6,2.5,2.1,2.8
		c1.9,0.3,3.8,0.9,5.7,0.8c6.1-0.2,11.5,1.4,16.2,5.4c2,1.7,4.4,2.7,7.2,2.5c1.6-0.1,3.2,0.2,4.7-0.1c1.7-0.3,3.5-0.8,5.1-1.6
		c1.6-0.8,3.1-1.9,4.6-2.9c2.3-1.6,4.7-1.7,7.5-1.1c2.2,0.5,4.7,0.5,7,0.4c3.1-0.2,4.4-2.1,4.3-5.3c-0.2-3.5-1-6.9-2.7-10
		c-0.7-1.4-1.5-2.8-2.1-4.2c-0.4-1-0.5-2.1-0.7-3.1c2.2-1.1,3.6,0,4.6,1.1c1.9,1.9,3.7,4,5,6.4c1.6,2.8,2.9,5.8,3.9,8.9
		c1.1,3.4,0.4,4.5-2.9,5.7c-2.1,0.8-3,2.5-3.6,4.4c-0.3,0.8-0.2,1.8-0.3,2.9c-1.9,0.2-3.2,1.1-3.7,3.1c-0.4,1.7-1.5,3.3-2,5.1
		c-1.8,6.3-5.6,11.7-8.8,17.3c-1,1.8-2.6,2.9-4.7,3.9c-2.5,1.1-4.8,3-7,4.8c-1.7,1.5-3.5,2.4-5.8,2.8c-2.6,0.5-4.9,1.9-7.5,2.9
		c0.8,2.8,2.6,3.6,4.5,3.8c2.7,0.2,5.5,0,8.1-0.4c5.7-0.9,11.2-1.4,16.9-0.2c3.9,0.8,7.9,1.5,11.9,1.4c6.3-0.1,12,1.8,17.8,3.6
		c2.2,0.7,3.9,3.4,3.5,5.9c-0.3,2,0.4,3.3,1.5,4.8c2.4,3,2.3,3.1,1.8,7.1c-2.6,0-5.2,0-8,0c-0.2-0.9-0.3-1.8-0.6-2.7
		c-0.7-2.4-1.7-4.5-4.6-5.1c-1.7-0.4-3.2-1.6-4.9-2.4c-3.7-1.6-7.5-2.8-11.6-2.6c-3.5,0.1-7-0.5-10.4-0.7c-4.3-0.2-8.5,0.3-12.6,1.8
		c-4.5,1.7-9.1,2.1-13.8,1.1c-0.8-0.2-1.6-0.5-2.3-0.4c-5.2,1-10.6,0.6-15.6,2.7c-0.6,0.3-1.2,0.5-1.8,0.8c-1.2,0.8-1.2,1.9,0.1,2.6
		c2.4,1.3,4.7,2.7,7.7,2.5c4-0.2,8.1,0.3,12.1-0.2c5.8-0.7,11.6,0.6,17.4,0.2c1.8-0.1,3.6,0.5,5.4,0.8c4.2,0.6,7.9-1.3,11.8-2.1
		c2.1-0.4,4.2-1.2,6.6-0.1c-0.6,0.7-1.1,1.4-1.6,1.8c-1.9,1.7-3.9,3.4-5.8,5.2c-1.6,1.5-2.3,3.6-1.8,5.7c0.9,3.5-1,5.5-3.7,6.8
		c-2.8,1.4-5.7,2.8-8.7,3.3c-2.7,0.4-5,1.5-7.3,2.6c-3.6,1.8-7.3,2.6-11.3,1.3c-1-0.3-2.1-0.4-3.1-0.3c-8,1.3-16.6-6.1-19-13.4
		c-1.2-3.8-4.5-5.9-6.6-9c-0.5-0.7-2.4-1.1-3.5-0.8c-4.1,1-6.8,3.7-8.8,7.4c0.4,0.2,0.8,0.4,0.9,0.4c2.1-2.8,4.5-1.7,6.9-0.5
		c2,1,3.9,2,5.7,3.3c1.3,0.9,2.6,2.1,3.6,3.4c1.5,1.9,2.9,4,4.5,6.3c-2.6,1.8-5.1,3.1-8.1,3.9c-4.2,1.1-8.8,1.3-12,4.9
		c-3,3.4-3.4,9-0.7,12.6c1,1.3,2,2.7,3,4c2.3,3,6.1,3.3,9,5.2c1.3,0.8,2.8,1.3,4.3,1.7c1.6,0.4,3.4,1.2,4.9,0.8
		c4.5-1.1,8.7,0.5,12.9,1.3c3.3,0.6,6.4,0.7,9.6,0c1.4-0.3,3.1-0.1,4.5,0.4c2.8,1.2,5.5,1.1,8.4,0.5c1.6-0.3,3.5-0.6,5-0.2
		c2,0.6,3.7,0.3,5.7-0.2c3.8-1.1,7.9-1.5,11.7-2.7c3.5-1.1,7-1.8,10.7-1.6c0.5,0,1.1-0.2,1.4-0.5c2.2-2.1,4.5-4.2,6.6-6.5
		c1.8-1.9,3.4-3.9,5-6c1-1.3,1.8-2.8,2.3-4.4c0.6-1.8,1-3.4,2.8-4.4c1.6-0.9,2.4-2.4,2.2-4.2c-0.1-1.5-2.8-3.5-4.7-3.5
		c-2.2,0-4-0.8-5.7-2.2c-0.9-0.7-2.3-0.9-3.5-1.2c-3.2-0.8-6.5-1.6-9.8-2.4c-0.7-0.2-1.4-0.7-1.9-1.3c-1.6-1.6-1.5-3,0.4-4.1
		c2.4-1.3,4.8-2.7,7.3-3.7c1.4-0.5,3-0.4,4.6-0.5c1.6-0.1,3.2-0.2,4.9-0.3c0.9,0,2-0.9,2.8,0.4c0.2,0.3,1,0.3,1.4,0.3
		c3.9-0.2,7.8-0.6,11.6-0.6c2,0,3-0.8,4-2.4c1.4-2.5,3-4.9,4.8-7c1.2-1.4,2.9-2.8,4.7-3.3c4-1.2,7-3.2,8.1-7.4
		c0.3-1.1,0.9-2.3,1.8-3c4-3.2,5.9-7.8,8.2-12.1c0.6-1.1,1-2.5,0.9-3.7c-0.2-3.7,2-5.9,4.7-8.4c0.9,1.8,0.6,3.1-0.1,4.5
		c-2.5,5.7-4.9,11.4-7.3,17.2c-0.3,0.7-0.6,1.5-1.1,2.1c-1.9,2.3-2.7,4.9-3.2,7.8c-0.9,4.8-2.5,9.5-2.5,14.5c0,3.3-0.2,6.8-0.9,10
		c-0.4,2-1.6,4.1-3,5.7c-2,2.4-2.4,3.8-1,6.3c1.8,3.3,1.7,3.9-0.8,6.9c-1.3,1.5-2.4,3.1-1.8,5.8c3-1.9,5.8-3.6,8.8-5.4
		c0.5,0.9,1,1.6,1.1,2.3c0.7,7.2,2,14.4,0.3,21.7c-0.4,1.7-0.1,3.6-0.2,5.5c0,6.8-1.4,13.3-3.8,19.7c-1.9,5.3-3.3,10.9-4.8,16.3
		c-2.1,7.4-6.2,13.7-9.6,20.4c-0.8,1.6-1.8,3.2-2.5,4.8c-3,7.3-6.9,14.1-12.1,20.1c-1,1.2-1.7,2.6-2.6,3.9c-1.6,2.2-3.4,4.2-5,6.4
		c-1,1.3-2,2.7-2.8,4.1c-2.7,4.7-5.2,9.6-8.1,14.2c-1.6,2.5-4.6,3.1-7.2,3.1c-3,0-5.2,1-7.5,2.5c-4.2,2.6-8.5,4.9-13.1,6.7
		c-5.2,1.9-10.5,2.6-15.9,3.2c-1.3,0.2-2.5,0.7-3.7,1.2c-2.5,0.9-4.8,0.9-6.7-1.4c-1.6-1.9-3.1-3.9-4.9-5.6c-2-2-4.2-3.9-6.6-5.5
		c-5.5-3.8-11.2-7.5-16.8-11.2c-3-2-6.1-3.9-9.2-5.7c-2.7-1.5-4.7-3.6-6.4-6.1c-2.2-3.2-4.6-6.3-7.2-9.1c-6.6-7-12-14.9-17.4-22.8
		c-5-7.3-9.5-14.9-13.7-22.6c-3.1-5.7-5.7-11.7-8-17.7c-1.8-4.7-2.8-9.6-4.2-14.5c-0.1-0.5-0.2-1-0.2-1.5c0.7-7.8,1.4-15.5,2.2-23.6
		c0.3,0,0.9-0.2,2-0.4c-2.3-3.9-1.6-7.7-0.4-11.7c0.4-1.2,0-2.8-0.2-4.2c-0.3-2.6-0.8-5.1-1.1-7.6c-0.6-4.4-1.1-8.7-1.6-13.1
		c-0.2-1.6,0-3.1-0.1-4.7c-0.4-4.1-1-8.2-1.5-12.3c-0.1-1-0.4-2.1-0.2-3.1c0.6-4.3-1.3-7.9-3.4-11.3c-2.2-3.6-4.2-7.4-5.5-11.5
		c-2.4-7.1-5.2-14.1-7.6-21.2c-1.6-4.6-3.1-9.3-4.4-14.1c-1.1-4.3-4.4-6.8-8-7c-4.9-0.3-7.1-3.9-10.4-6c-0.9-0.6-0.9-2.4-1.5-3.5
		c-2.9-5.8-4.3-11.9-4.2-18.3c0-1-0.3-2-0.4-3.1c-0.2-1.5-0.7-3.2-0.3-4.6c1.4-5.2-0.7-9.9-2-14.7c-0.1-0.4-0.3-0.7-0.5-1
		c-5.1-6.2-7.1-14-10.7-21c-2.1-4-2.5-8.9-3.1-13.5c-0.4-3.1,2.3-6.3,5.5-7.6c1.5-0.6,3-1.3,4.7-2c-1.1-3.1-1.9-5.8-3-8.4
		c-2.1-4.8-3.6-9.7-4.1-15c-0.4-4.1-0.9-8.2-2.8-12c-0.6-1.2-0.8-2.8-0.8-4.2c-0.1-6-2.5-11.6-2.3-17.7c0.2-9.4-0.4-18.8,0.2-28.2
		c0.7-10.9,0.4-21.8,0.9-32.8c0.3-6.9,2-13.8,2.2-20.8c0.2-5.3,2.9-9.2,5.5-14.1c3.2,4.2,0.6,8.7,2.1,12.4c3.9,0,5.4-0.8,6.5-4.3
		c0.6-2.1,1.2-4,3.9-4.6c0.8,0.6,1.7,1.2,2.8,2c3.5-5.2,8.6-9,10.2-15.1c0.2-0.7,1-1.2,1.5-1.8c0.7-1.1,0.7-1.1-0.1-4
		c-1.3,0.6-2.7,1-3.7,1.9c-2.1,1.9-4,4.1-5.8,6.3c-1.1,1.4-2.1,2.8-4.1,2.4c-2.1-0.4-2.9-1.9-3-4c0-0.2-0.2-0.5-0.5-1.2
		c-2.2,1.2-4.4,2.3-7.2,3.8c-0.3-1.3-0.8-2.2-0.7-3.1c0.1-0.9,0.6-1.7,1.1-2.5c3.6-6.3,7.1-12.6,11.1-18.7c2.3-3.6,3-7.7,4-11.7
		c2.2-8.8,0.2-6.6,9-9.2c1.2-0.4,2.5-0.6,3.8-1c2.3-0.6,4.4-1.4,4.7-4.4c0.1-0.7,0.8-1.3,1.3-1.9c3.1-3.2,6.2-6.3,9.4-9.4
		c0.7-0.7,1.6-1.4,2.5-1.8c6.9-3.7,13.8-7.3,20.7-10.9c2.6-1.4,5.2-2.9,7.9-4.3c1.5-0.8,3.1-1.5,4.7-1.9c7.1-1.9,14.2-3.9,21.4-5.5
		c5.8-1.3,11.7-2.2,17.5-3.3c5.2-1,10.4-1.8,15.6-2.9c12.5-2.8,25.2-3.9,37.9-2.9c4.6,0.3,9,2.4,13.5,3.7c10.9,3.3,21.8,6.6,32.7,10
		c2.3,0.7,4.5,2.1,6.7,3.2c3.8,2,7.5,4.2,11.4,6c7,3.4,13.2,8.2,19.5,12.8c8.3,6.2,16.7,12.3,24.9,18.6c1.4,1.1,2.7,2.5,3.5,4
		c2.6,4.8,5,9.7,7.4,14.7c1,2.1,1.8,4.3,2.7,6.5c0.9,2,2.5,4-0.7,5.5c0.1,2.1-0.4,4.5,0.3,6.4c1.7,4.7,4.2,9.2,6,14
		c1,2.7,1.4,5.7,1.9,8.6c0.4,2.3,0.3,4.7,0.9,6.9c0.6,2.5,0.3,4.7-0.2,7.1c-0.7,3-0.7,6.2-0.3,9.3c0.7,5.2,2.2,10.4,2.9,15.6
		c0.3,2.3-0.8,4.8-1,7.2c-0.3,3-0.4,5.9-0.3,8.9c0,2.1,0.5,4.1,0.7,6.2c0.3,5.2,0.5,10.3,0.9,15.5c0.2,3.1-0.5,5.9-1.8,8.7
		c-2.1,4.3-1.7,8.7-1.2,13.3c0.5,5,0.3,10.1,0.3,15.2c0,0.6-0.4,1.2-0.7,1.8c-2.2,3.8-2.9,8-3.4,12.3c-0.2,2.1-0.9,3.8-2.4,5.2
		c-4.5,3.9-7.6,8.8-9.8,14.3c-1.1,2.8-1.1,5.7-0.6,8.4c0.7,3.6,4.5,5.1,8.5,3.4c2.6-1.1,5.1-2.5,7.7-3.8c3.1-1.5,4.3-0.7,4.3,2.8
		c0,5-2.3,9.2-5.1,13.2c-0.4,0.5-1.1,0.9-1.3,1.5c-0.9,2.7-3,2.5-5.1,2.4c-2.5-0.1-4.8,0.7-6.1,2.8c-1.1,1.8-1.6,4.1-2.3,6.1
		c-0.4,1.3-0.6,2.8-1,4.1c-0.4,1.3-1.3,1.9-3,1.4c-0.1-0.9-0.3-1.8-0.2-2.8c0.2-2.6,0.5-5.1,0.8-7.7c0.2-2.2,0.5-4.4,0.8-6.5
		c0.1-1,0.2-2.1,0-3.1c-1.2-5.7-2.5-11.3-3.6-17c-0.9-4.4-1.5-8.9-2.4-13.3c-1.2-5.5-2.2-11.2-4.3-16.4c-2.2-5.4-1.7-10.7-1.6-16.1
		c0-1.8,0.5-3.6,0.7-5.4c0.3-2.2,0.6-4.4,0.7-6.5c0.2-2.5,0.3-4.8-0.8-7.3c-0.9-2.2-1.2-4.7-1.7-7.1c-0.7-3.8-1.3-7.6-2-11.4
		c-0.2-1.1-0.6-2.3-0.5-3.4c0.4-3.9-0.7-7.4-2.7-10.8c-1.3-2.2-2.5-4.6-3.5-7c-0.9-2-1.8-3.9-0.9-6.2c0.7-1.9-0.7-3.2-2.4-4
		c-5.6-2.8-11.6-4.5-17.6-5.9c-3-0.7-6.2-0.7-9-2.1c-4.8-2.5-10.4-3.6-13.8-8.8c-2-3-6-4-9.5-4.9c-1.4-0.4-2.8-0.6-4.2-0.9
		c-2.4-0.5-4.7-1.6-6.7,1c-0.3,0.4-2.1,0.3-2.7-0.1c-2-1.8-4.1-3.6-5.7-5.8c-3-4-8-6-12.6-4.7c-1,0.3-2,0.6-3,0.7
		c-3.7,0.5-7,1.9-9.3,5.5c-3.2-2.1-6.1-4.3-9.2-5.9c-3.2-1.6-6.7-2.4-10-3.6c-2.4,4.9-2.5,4.2-6.7,3.3c-0.4,0.4-0.9,0.8-1.4,1.3
		c-2.7,2.5-3.5,2.6-6.3,0.4c-5.5-4.3-11.6-7-18.7-4.3c-2.4,0.9-4.4,0.6-6.8-0.3c-2-0.7-4.4-0.9-6.5-0.5c-4.2,0.8-7.6,0.4-10.2-3.4
		c-0.7-1-2.3-1.8-3.6-2c-4.8-0.6-9.5,0.1-13.9,2.2c-2.2,1.1-4.5,2.2-6.8,2.9c-4.1,1.2-6.6,4.5-9.5,7.1c-0.5,0.5-1,1.3-0.9,2
		c0.1,2.5-1.4,4.2-2.6,6.2c-1.5,2.5-2.7,4.9-0.3,7.8c1.7,2.1,1.4,3.6-0.3,5.6c-0.6,0.7-1.3,1.2-2.1,1.7c-4.5,2.7-4,4.6-3.1,8.5
		c0.7,3.1,1.6,6.2,4.5,8.4c0.9,0.7,1.3,2.6,1.2,3.9c-0.2,3.2,1.1,5.8,2.8,8.3c0.9,1.3,1.5,2.7,2.2,4c-2.4,3-3.7,3.2-6,0.8
		c-2.9-2.9-6.3-5.5-7.3-9.9c-0.4-1.7-1.6-2.6-3.5-2.5c-1,0-2-0.2-3.6-0.4c2.4-5.3,4.7-10.2,7-15.3c-2-1-3.5-1-4.9,0.3
		c-1,0.8-2.1,1.5-3.1,2.3c-1.3,1.1-2.6,2.2-2.4,4.2c0,0.9-0.2,1.8-0.7,2.6c-2.3,4-3.1,8.2-2.9,12.7c0.1,1.5-0.9,3.1-0.7,4.6
		c1.1,7.1-0.6,14.2-0.2,21.3c0.2,4.1-0.6,8.3-0.7,12.4c0,1.8,0.5,3.6,0.8,5.3c0.6,4.5,1.8,8.7,5.3,12c1.1,1,1.8,2.5,2.7,3.8
		c1.6,2.2,1.7,3.4-0.4,5c-1.5,1.2-2.1,2.5-2.3,4.2c-0.5,2.9-1.1,5.8-1.9,8.6c-0.3,1-0.8,2-1.5,2.7c-4.2,3.9-5.1,9.4-5.9,14.5
		c-1,6.1-0.9,12.4-1,18.6c0,2.8,0.6,5.7,0.8,8.5c0.2,3.3-0.1,6.6,0.6,9.7c0.5,2.1,2.1,4.2,3.7,5.8c2.1,2,3.1,4,2.8,6.9
		c-0.4,2.9,0.6,5.3,2.7,7.4c1.6,1.6,2.1,4.1,4.3,5.3c2.8,1.5,5.7,3.2,8,5.3c3,2.8,5.5,6.2,8.3,9.3c2.7,3.1,5.3,6.3,7.1,10
		c0.9,2,1.5,4.1,2.3,6.2c0,0.1,0.2,0.3,0.1,0.4c-1.4,3.4,0.4,6.5,0.9,9.7c0.2,1-0.3,2.3-0.8,3.3c-0.9,1.7-1.2,3.4-0.4,5.2
		c1,2.4,0.6,4.6-0.8,6.7c-1.9,2.8-1.8,5.5,0,8.4c2.1,3.3,3.3,7,2.9,11.1c-0.1,1.3,0.6,1.9,1.4,2.9c3.1,3.3,5.8,7,8.7,10.4
		c0.7,0.9,1.6,1.6,2.4,2.3c2.6,2.3,5.3,4.5,7.8,7c0.8,0.8,1,2.4,1.4,3.6c0.7,2.3,1.3,2.5,4.1,0.9c-0.3-0.8-0.5-1.6-0.9-2.4
		c-0.9-1.6-0.8-2.8,0.7-4.1c0.9-0.7,1.3-2.1,1.9-3.2c0.7-1.2,1.2-2.9,2.2-3.4c4.1-2.1,7.8-5.1,12.7-5.8c2.8-0.4,5.3-1.9,8.1-2.6
		c1.8-0.5,3.9-0.9,5.7-0.4c1.7,0.4,3,0.3,4.5-0.2c5.7-1.8,11.4-3.5,17-5.3c1.8-0.6,3.5-1.4,5.5-2.2c-1.5-2.5-3-4.2-5.3-5.1
		c-4.5-1.6-6.7-5.6-9.1-9.2c-1.3-1.9-1.8-4.3-2.9-6.3C655,419.1,652.9,412.7,651.1,405.5z"/>
	<path d="M610.3,318.8c-5.7,1.4-6.2,1.3-7.3,8c0.8,1.1,1.7,2.2,2.5,3.4c0.4,0.6,0.6,1.4,0.9,2.1c-1.5,2.2-3.1,0.9-4.6,0.4
		c-3.8-1.3-7.6-1.5-11.4-0.1c-0.7,0.3-1.4,0.6-2.1,1c-4.4,2.7-9.1,2.1-12.7-1.7c-1.2-1.2-2.3-2.5-3.1-4c-0.6-1.1-1-2.4-1-3.6
		c0.1-2.7,0.6-5.4,0.9-8.1c0.3-2.3,0.8-4.6,0.7-6.9c-0.2-3.2,1.1-5.8,2.6-8.4c1.2-2.1,2.6-2.2,4.3-0.4c0.3,0.3,0.5,0.6,0.7,1
		c2.5,4.1,6.6,3.5,10.4,3.2c0.7-0.1,1.6-0.9,1.9-1.6c0.5-1.4,0.8-3,0.9-4.5c0.2-3.3,0.6-4,3.4-4.8c4.5-1.1,9-2.4,13.8-2
		c4.4,0.4,8.8-0.3,13.1-1.6c2.7-0.8,5.2,0.4,7.5,1.4c6.8,3,13.8,5,21.3,5.4c4,0.2,7.5,1.9,10.6,4.3c0.7,0.6,1.2,1.7,1.4,2.6
		c0.5,2.1,0.3,4.5,1.2,6.5c2.1,4.9,1.2,10,1.4,15c0.1,2.1-1,3.8-2.7,5c-2.8,1.9-5.7,3.6-8.6,5.4c-1.5-1.7,0-3.1,0.6-4.9
		c-2.4-2.5-5.8-3.3-8.7-2.5c-4.2,1.1-6.9-1-10.3-2.6c0.3-1.6,0.5-3.1,0.9-4.6c0.8-3,0.3-4.7-1.8-5.7c-2-1-3.8-0.2-5.6,2.1
		c-1.8,2.3-3.2,4.7-6.2,6.1c-3.2,1.5-6.3,0.8-9.5,0.8c-0.6,0-1.2-0.9-1.7-1.5C612.9,321.8,611.6,320.3,610.3,318.8z"/>
	<path d="M703.9,329c-4.3-0.8-5.2-3.7-5.6-7c-0.2-1.8-0.1-3.7,0-5.5c0.1-3.8-0.2-7.5-1.4-11.1c-1.1-3.3-0.1-5.6,2.7-7.3
		c2.1-1.3,4.3-2.5,6.5-3.6c1-0.5,2.2-0.6,3.3-0.8c1.9-0.3,3.8-0.5,5.7-0.9c2.9-0.6,5.8-1.2,8.7-1.8c1-0.2,1.9-0.7,2.9-1.1
		c2-0.9,3.8-1.2,6.2-0.9c3.9,0.4,8.1,0.1,11.9-1c5.8-1.7,11.7-2.2,17.7-2.1c2,0,4,0,4.3,2.7c0.1,0.6,0.6,1.2,1.1,1.5
		c3.6,2.5,5.8,6.7,10.9,7.2c-1,1.9-2.5,1.4-3.6,1.3c-1.4-0.1-2.8-0.6-4.1-1.1c-4-1.5-6.3-1.8-11.9-0.8c0.9,0.9,1.5,1.7,2.3,2.1
		c5.9,3,11.8,6,17.7,9c0.7,0.3,1.5,0.7,1.8,1.3c1.3,2.5,2.6,5.1,3.5,7.7c0.3,0.9-0.1,2.4-0.7,3.2c-2.2,2.9-5.6,3.7-9.1,2.4
		c-2-0.8-3.8-2.1-6.2-1.4c-0.6,0.2-2.2-1.1-2.5-1.9c-1.5-4.3-5.4-4.4-8.7-5.5c-0.6-0.2-2.1,0.6-2.5,1.3c-1.3,2.4-3.4,3.5-5.9,4
		c-2,0.4-4,1.2-6,1.3c-1.3,0.1-2.6-0.9-3.8-1.4c-2.5-0.9-4.7-2-6-4.6c-0.9-1.7-2.7-2.1-4.4-1.6c-1.8,0.5-2.8,1.8-2.8,3.8
		c0,1.4,0,2.9,0,4.3c-0.1,2.9-1.8,4.8-4.8,4.8c-3.2,0-6.5-0.3-9.7-0.7c-1.8-0.2-3.3,0.3-4.7,1.4C705.7,327.2,704.8,328.2,703.9,329z
		"/>
	<path d="M802.8,360.7c1.6,1.5,1,2.5,0.6,3.6c-1.4,3.4-2.7,6.9-4,10.4c-0.3,1-0.7,2-0.6,3c0.3,4.1-0.9,7.9-1.9,11.8
		c-0.9,3.5-2,7.1-0.8,11c0.5,1.6,0.3,3.2-1.6,4.3c-1.5,0.9-2.6,2.5-3.7,3.8c-1.1,1.4-2.1,1.4-3.6,0.5c-4.1-2.6-4.1-6.8-4.8-10.9
		c-0.5-3,0.4-5.7,2.1-8.1c1.7-2.3,3.6-4.3,5.4-6.5c0.6-0.7,1.1-1.5,1.5-2.3c1.7-3.2,3.2-6.5,5-9.7
		C798.3,368,800.5,364.4,802.8,360.7z"/>
	<path d="M815.5,365.4c1.8-2.9,3.6-4,6.5-2.7c1.3,0.6,3,0.3,4.9,0.4c-0.4,1.2-0.7,2.2-1.1,3.1c-2.2,4.6-4.7,9-6.8,13.6
		c-1.8,4-4.5,7.4-7.4,10.4c-3,3.2-4.4,6.9-5.2,11.1c-0.2,0.9-0.3,1.8-0.6,2.6c-1.1,4.4-1.1,4.4-6,3.7c-1.4-4.4,1.4-7.6,3.6-10.9
		c0.9-1.3,2.1-2.3,3.2-3.4c1.4-1.3,2.3-2.5,2.5-4.6c0.1-1.2,1.2-2.5,2.2-3.4c5.2-4.6,6.5-11.1,8.8-17.1c0.5-1.3-0.3-2.3-1.7-2.6
		C817.8,365.5,816.9,365.5,815.5,365.4z"/>
	<path d="M714.3,337.8c1.2,0,1.6,0,2,0c6-0.8,11.1,0.4,15.1,5.6c1.5,1.9,4.6,2.6,7.1,3.9c0.8,0.4,1.7,0.7,2.5,1.1
		c2,1.2,3.9,2.4,6.1,3.7c-2.2,0.5-4.1,1-6,1.2c-4.1,0.4-8,0-11.4-2.7c-4.6-3.8-9.2-7.5-13.9-11.2
		C715.4,339.1,715.1,338.7,714.3,337.8z"/>
	<path d="M631,336.6c-3.8,3.1-8.2,4.4-12.9,4.1c-2.7-0.2-5.4-0.5-8-1.2c-2.6-0.7-2.8-1.7-2-5.1C615.4,337.1,623.2,336,631,336.6z"/>
	<path d="M583.8,808.1c-4-3-4.6-7.7-1.5-11.3C583.8,800.5,585.7,803.8,583.8,808.1z"/>
	<path d="M634.8,336.3c1.1-3.9,2.3-4.9,5.1-4.5c1.7,0.2,3.7,0.4,3.5,3.3C640.6,335.4,638,335.8,634.8,336.3z"/>
	<path d="M745.7,185.4c-0.9,1.2-2,1.5-3.4,0.8c-2-1-4-2-3.9-4.7C741.5,179.1,742.3,179.5,745.7,185.4z"/>
	<path d="M586.9,827.8c-2.8-2.9-3.2-5.9-3.6-8.8c-0.1-0.5,1-1.2,1.6-1.8C587.6,819.7,587.7,820.2,586.9,827.8z"/>
	<path d="M796.9,418c0.2,3,0.5,5.5-1.6,7.6C793.9,421.7,794.1,420.3,796.9,418z"/>
	<path d="M730.7,175.7c1.1,0.2,2.2,0.4,4,0.7C732.7,178.1,731.5,179.1,730.7,175.7z"/>
	<path d="M810,376.3c0.1,1,0.1,1.9,0.2,2.9c-0.2,0-0.5,0-0.7,0.1c-0.1-0.9-0.2-1.8-0.3-2.8C809.4,376.4,809.7,376.3,810,376.3z"/>
	<path d="M772.5,285.2c-1,1-1.9,0.6-2.5-0.3c-0.1-0.2,0.4-1.3,0.7-1.4C772,283.3,772.4,284.1,772.5,285.2z"/>
	<path d="M809.6,354.3c-0.6-2.3-0.6-3.3,1.8-3.3C810.8,352,810.4,352.8,809.6,354.3z"/>
</g>
</svg>
