<?xml version="1.0" encoding="utf-8"?>
<!-- Generator: Adobe Illustrator 19.0.0, SVG Export Plug-In . SVG Version: 6.00 Build 0)  -->
<svg version="1.1" id="图形" xmlns="http://www.w3.org/2000/svg" xmlns:xlink="http://www.w3.org/1999/xlink" x="0px" y="0px"
	 viewBox="202 -80.8 1000.6 1000.7" fill="#ede4d3" style="enable-background:new 202 -80.8 1000.6 1000.7;" xml:space="preserve">
<g>
	<path d="M644.3,392.3c0.4-2.4,0.7-3.8,0.8-4.5c-5.4,1.2-10.7,3.1-16,3.2c-3.8,0.1-7.7-2.5-11.6-3.3c-2.5-0.5-5.2,0.1-7.8,0.4
		c-0.5,0.1-1.4,2-1.2,2.2c1.7,1.7,3.3,3.7,5.4,4.6c2,0.9,4.5,0.9,6.8,1c2.5,0.2,4.2,0.7,3.5,3.8c-0.1,0.6,1.2,2.2,1.9,2.2
		c3.9,0.2,7.8,0.1,13,0.1c-1.6-2.5-2.3-3.5-3.2-4.9c8.2-0.7,16.2-1.4,24.1-2.1c-2.2,4.8-6.1,9-11.7,10.9c-6.3,2.2-12.9,3.3-19.4,4.9
		c-2.2,0.5-4.4,1-6.5,2c-3.1,1.5-5.6,2.3-5.6-2.7c0-0.6-0.7-1.4-1.3-1.7c-7.3-2.9-14.8-5.6-22-8.7c-2.7-1.2-4.9-0.5-7.6-0.3
		c-3.5,0.2-7.4-2-10.8-3.8c-4.5-2.3-9-3.8-14.7-2.3c-1.8-5.7-3.6-11.6-5.4-17.5c-0.6,0-1.3,0-1.9,0c-0.9,4.6-1.9,9.3-2.8,14
		c-0.8,0-1.5,0.1-2.1,0.1c-9.2-0.5-9.2-0.5-11.9-9.6c-0.4-1.4-1.1-3.2-2.2-3.7c-6-2.8-5.6-9-7.7-13.9c-2-4.6-4.1-9-6.3-13.5
		c-1.4-2.8-3.1-5.5-4.2-8.4c-3.3-8.5-4.3-16.7,1.6-24.8c1.3-1.8,1.2-5.3,0.6-7.7c-4.3-18.1-9-36.2-13.3-54.3
		c-1.5-6.4-2.2-13-3.3-19.5c-1.2-6.8-2.2-13.8-3.9-20.5c-0.7-2.6-3.1-4.8-5.1-7.8c-1.1,2.1-1.8,3.4-2.4,4.6
		c-0.4-0.2-0.8-0.4-1.2-0.6c2.5-5.1,5-10.1,7.5-15.2c0.7-1.5,1.2-3.2,1.6-4.8c0-0.1-2.1-1.1-2.4-0.9c-1.5,1.4-3,2.9-4,4.7
		c-0.9,1.5-1.1,3.4-1.7,5.1c-0.5,0-1.1-0.1-1.6-0.1c-0.3-2.5-0.7-4.9-1.2-8.6c-3.9,1.1-7.6,2.1-11.4,3.1c3.9-5.4,7.8-10.9,11.7-16.3
		c-0.2-0.5-0.5-1-0.7-1.6c-4.5-0.4-9.1-0.7-13.6-1.1c0-0.6-0.1-1.3-0.1-1.9c3.5-0.4,7-0.6,10.5-1.1c1.8-0.3,3.6-1,5.4-1.5
		c-1.9-1.4-3.6-3.7-5.6-4c-5.4-0.8-10.9-0.8-16.3-1.1c-0.6,0-1.3-0.2-2.5-0.4c3.5-5.7,8.8-4.1,13.5-4.3c4.9-0.3,9.8-0.7,14.8-2.2
		c-3.9-1.6-7.8-3.2-11.8-4.8c0.1-0.4,0.2-0.9,0.2-1.3c3.8,0.6,7.7,1.1,11.5,1.7c4.3,0.7,8.8-1.4,9.7-5.5c0.3-1.4-1.4-4.3-2.8-4.8
		c-2.2-0.8-5.3-1-7.3,0c-4.4,2.3-8.6,3.7-13.6,4c-1.9,0.1-3.5,3.8-5.3,5.8c-1,1.1-2,2.1-3.4,3.7c-2.7-4.6,2.2-5.6,2.9-8.1
		c0.2-0.7,1.6-1.1,2.4-1.6c3.1-1.7,5.5-3.8,2-8.7c4,0,6.8-0.2,9.7,0c3.5,0.3,10.2-5.4,9.6-8.6c-0.2-1-2-1.7-3.4-2.7
		c1.8-0.9,3.6-1.8,5.5-2.7c-2.5-3.1-2.5-3.1-9.6-0.9c0.7-1.9,3.1-5.2,2.3-6.8c-1.2-2.4-4.8-3.7-7.7-5.7c1-0.9,1.8-1.5,3.1-2.7
		c-1.6-0.1-2.7-0.2-3.7-0.3c-1.1-0.2-2.2-0.4-3.3-0.7c0.9-0.8,1.8-1.8,2.8-2.4c3.1-2,5.6-1.1,7.6,1.8c2.4,3.5,4.8,2.5,6.7-0.2
		c2.9-4.2,7.7-6.8,8.5-12.9c0.5-3.8,4.5-5.9,8.9-4.5c2-3.3,3.4-6.6,5.8-9.1c1-1,4.8-0.7,6,0.4c3.9,3.7,7.1,0.1,10.6-0.3
		c0.2,0,0.3-3.8-0.1-3.9c-2.9-0.9-6-1.7-8.9-1.6c-4.3,0.1-8.7,0.7-12.9,1.5c-3.1,0.6-6.1,2-9.2,3c-1.1,0.3-2.2,0.6-4.8,1.2
		c2-2.2,2.9-3.8,4.1-4.3c10.6-4.3,21.3-8.2,33.1-5.7c1,0.2,2.3-1.1,3.4-1.7c-0.2-0.5-0.4-1-0.6-1.5c-3.9-0.6-7.7-1.1-11.6-1.7
		c-0.2-0.5-0.4-1-0.5-1.4c1.2-0.4,2.4-1.2,3.5-1.2c1.8,0,3.6,0.9,5.3,0.8c2.6-0.2,6.5-0.2,7.3-1.7c1.4-2.5,0.8-6.1,1.1-9.8
		c0.8,0.7,3.1,1.8,3.5,3.4c0.8,3.5,1.6,4.6,4.8,2c0.8-0.6,2.7,0.2,4.4,0.4c0.7-4.9-2.5-8.5-5.6-9.5c-8.1-2.8-16.6-5-25.5-2.6
		c-3.2,0.9-7-0.4-10.4-1.5c14.9-4.4,29.6-5.5,43.5,2.9c1.7-4.7-1-8.8-12.7-19.8c2.4,0.4,3.7,0.3,4.9,0.8c7.3,2.9,14.6,6,22,8.7
		c1.2,0.5,3.6,0.1,4.3-0.8c0.8-1,0.8-3.6,0.1-4.5c-2.7-3.2-6-5.9-8.9-8.9c-1.2-1.3-2-3.1-3-4.6c2,0.1,4.8-0.6,6,0.4
		c5,4.3,9.6,9.1,14.2,13.9c2.9,3,4,2.9,6.1-0.6c1-1.7,2.8-3,4.2-4.4c0.4,0.3,0.8,0.7,1.3,1c-0.2,1-0.2,2.2-0.8,2.9
		c-2.9,3.6-0.4,5.4,2.2,7c2.9,1.8,11.4,0.7,14-1.6c3.5-3.1,2.7-7.5-1.7-8.9c-4.7-1.5-9.4-2.8-14.2-4c-1-0.3-2.2,0.4-3.4,0.4
		c-1.2,0.1-2.4,0.1-3.5-0.2c-0.4-0.1-0.9-1.8-0.7-2c1.1-0.9,2.4-2,3.7-2.1c2.7-0.3,5.5,0,8.2-0.1c4.5-0.2,9-0.6,14.1-1
		c2.1-4.5-0.9-8.2-4.8-10.3c-5.3-2.9-11.2-5-17.6-3.2c-1.4,0.4-3,0.2-5.9,0.4c1.7-1.8,2.4-3.2,3.1-3.2c6.8-0.2,13.5-1.4,20.4,1.5
		c4.7,2,9.5,5.3,15.2,3.3c2-0.7,5.5-1.1,5.8-2.3c0.6-2.4-0.5-5.2-0.9-8.3c4.3-2.3,7.2,1,9.9,4.6c0.6,0.8,1.6,1.3,2.4,2
		c0.5-1.1,1.6-2.5,1.3-3.3c-0.8-2.1-2.2-3.9-3.5-5.7c-1.1-1.5-2.4-2.8-4.1-4.7c6.1-3.3,11.5-6,16.6-9c0.8-0.5,1.2-3,0.8-4.3
		c-2.2-5.8-2.3-5.8,2.6-7.7c1.7,3.5,3.1,7,5,10.2c0.6,1,2.7,1,4.1,1.6c3.5,1.7,7.6,2.9,10.2,5.6c3.8,3.8,6.7,8.7,9.8,13.3
		c1.3,2,2,4.3,3,6.7c1.4-1.9,1.4-1.9-1.6-12.3c5.2-2.2,7.7-0.2,9,5.2c1,4.1,3.5,8,6,11.5c0.8,1,3.9,0.3,6,0.4c0-1.7,0.2-3.4,0-5
		c-0.1-1-1-1.8-0.8-3.5c1.2,1.2,2.2,2.6,3.6,3.5c1.7,1,3.7,1.6,5.6,2.3c1.1,0.4,2.4,0.5,3.6,0.8c1.4,0.4,2.9,0.8,4.3,1.2
		c0.4-1.8,1.7-4.4,0.9-5.3c-2.6-3.2-6-5.9-9.1-8.7c-1.1-1-2.5-1.8-3.3-3c-0.3-0.4,0.9-2.5,1.5-2.6c1.6-0.1,3.7-0.1,4.9,0.8
		c4,3,7.6,6.4,11.4,9.6c3.7,3.2,6.2,2.7,7.8-1.7c2.2-5.8,4.2-11.6,5.8-16c1.3,2.9,3.3,7.4,5.4,12c1.7-0.6,3-1,5.2-1.7
		c-1.4,7.1,2,11.1,8,13.2c-4.6,5.7-4.4,7.1,1.3,8.4c0.4-1.1,0.9-2.3,1.3-3.5c0.7,0,1.3-0.1,1.6,0.1c1.9,1.3,3.8,2.7,5.7,3.9
		c1.4,0.9,3,1.5,4.5,2.3c0.3-1.7,1.2-3.6,0.9-5.2c-1.2-5.7-2.8-11.3-4.3-16.9c0.5-0.2,1-0.3,1.5-0.5c1,2.5,2,5,3,7.6
		c1.3,3.3,2.5,6.7,4,10c2.4,5.5,4.1,0.2,6.3-0.8c0.8,2.2,1.6,4.2,2.4,6.5c-2.6,3.2-2.8,13.1,0.1,16.5c0.6,0.7,2.1,1,3.2,0.9
		c0.6-0.1,1.7-1.4,1.6-2c-0.5-2.5-1.4-5-2.2-8c4.5,5.1,6.3-0.8,8.4-2.5c2.6-2,4-5.7,5.6-8.8c2.6-5.3,5-10.7,7.5-16.1
		c0.6,0.3,1.3,0.5,1.9,0.8c-0.7,1.8-1.5,3.6-2.2,5.3c-2,5.1-2.7,10.5-5.8,15.3c-2.2,3.3-0.4,5,3.3,4.9c4.3-8.5,8.4-16.6,12.5-24.8
		c0.3,0.1,0.5,0.2,0.8,0.2c-1.4,4.1-2.5,8.4-4.4,12.3c-2.4,4.8-4,8.2,0.2,13.7c2.4,3.1,6.2,3.8,7.8,7.2c-0.7,1.3-1.4,2.8-2.2,4.5
		c13.1-0.7,23.1-5.5,28.7-17.8c1.5,1.8,2.6,3.1,3.7,4.4c-9,6.3-11.2,16.4-15.7,25.2c0.4,0.4,0.8,0.8,1.2,1.2
		c3.4-1.4,6.9-2.8,10.3-4.1c0.1,0.3,0.2,0.5,0.3,0.8c1.2-1.4,2.4-2.8,3.7-4.4c0.9,2.6,1.5,4.3,2.1,6c1.4-0.6,2.8-1.4,4.2-1.9
		c1-0.3,2.5-0.9,3.1-0.4c6.2,4.3,11.8-0.3,17.6-1c0.5-0.1,0.9-0.5,1.3-0.6c2-0.5,4-0.9,6-1.3c-0.9,1.7-2,3.3-2.8,5
		c-3.6,7.8-7.5,15.5-10.7,23.5c-1.9,4.7-2.7,9.9-3.7,15c-0.8,3.9,1.4,5.5,5.8,4.2c5.6-1.7,10.8-1.6,16.2,2.6
		c-1.8,0.4-3.7,0.7-5.4,1.3c-1,0.4-2.2,1.3-2.5,2.2c-0.2,0.5,0.9,2.2,1.7,2.4c9.1,1.6,14.1,9.3,21.1,14.2c-0.5,0.6-1,1.6-1.3,1.6
		c-6.5-1.2-10.3,4.4-15.7,6c-0.5,0.2-1.4,0.9-1.3,1.2c0.2,1,0.5,2.4,1.2,2.8c2.7,1.6-0.1,9.9,7.2,6c0.9-0.5,2.1-0.3,3.9-0.5
		c-3.5,6-8.9,1.9-13.2,3.8c1.8,2.2,3.4,4.2,5,6.2c-0.2,0.5-0.4,0.9-0.6,1.4c3.5-0.4,6.9-0.8,10.4-1.2c0.1,0.5,0.2,1,0.2,1.4
		c-1.8,0.4-3.6,0.7-5.3,1.1c-0.2,0.4-0.5,0.8-0.7,1.2c1.9,1.1,3.9,2.3,5.9,3.5c-2.2,1.3-4.4,2.7-6.7,4.1c0.2,0.5,0.4,0.9,0.6,1.4
		c2,0,4,0,7.1,0c-3,2.6-5.1,4.5-7.3,6.3c0.1,0.5,0.2,1,0.3,1.5c7.6-1,15.2-2,22.8-3c0.1,0.7,0.3,1.3,0.4,2c-2.4,0.9-4.8,2.1-7.3,2.5
		c-2.8,0.4-5.7,0.1-6.6,4.2c2.1,0.6,4.4,0.8,6,1.9c1.6,1.1,2.6,3.2,3.8,4.8c-1.6,0.9-3.2,1.7-4.7,2.7c-1.6,0.9-4.4,2-4.3,2.9
		c0.1,2,1.3,4.4,2.7,5.8c1.5,1.4,4,1.9,6.3,2.9c-7.4,5.3-15.4,6.7-19.3,3c-1.3,2.6-2.5,5-3.5,7.2c-2-0.9-4-1.8-6.6-2.9
		c0,1.8-0.2,2.6,0,3c5.2,9.1,3.7,19.5,6,29.2c3.4,13.7-3.4,26.1-4.7,39.2c-0.7,7-1.9,14-2.9,21.1c-0.1,0.8-0.1,1.9,0.3,2.4
		c5.2,6.4-0.6,11.6-1.9,17.3c-0.5,2.4-3.2,4.2-4.4,6.5c-0.5,1,0.3,2.6,0.6,4.7c3.3-3.7,5.6-6.7,8.3-9.2c1.1-1,3.1-1,4.6-1.5
		c0.3,1.8,1.3,3.8,0.7,5.2c-3.4,7.6-4.1,15.3-3.4,23.6c0.4,4.7-1.4,9.5-2.3,14.2c-0.6,2.7-1.4,5.4-2.6,8c-2.8-10.5-4.6-21-3-32.3
		c-5.3,0.5-5.9,3.8-5.3,6.8c1.5,8-2.1,14.2-7.5,18.8c-4.4,3.8-5.3,8.4-5.8,13.1c-0.9,7.9-1.4,16.1-0.9,24c0.6,8.6-3.4,16.2-3.7,24.5
		c-0.1,4.2-0.4,8.4-0.4,12.7c0,4.1-0.2,7.9-3.9,10.7c-1,0.8-1,2.7-1.6,4.3c-0.5-0.5-1.4-1-1.3-1.4c0.4-6.4,1.1-12.9,1.3-19.3
		c0.1-2.9-0.7-5.9-1-8.8c-0.1-1.6,0-3.2,0.1-4.8c0.5-5.7,3.4-10.6,3.2-16.8c-0.1-4.1,0.6-8.9,1.2-13.3c1.1-7.8-0.5-14.9-2.4-22.3
		c-1.3-5-0.7-10.6-1-15.9c-0.3-5.3-0.8-10.5-0.7-15.8c0.1-9.3-7.3-14.5-11.7-21.3c-1.8-2.8-6.6-3.5-9.3-6.1c-2-2-3.3-5.2-4-8.1
		c-1.2-5.1-2.2-10.3-2.4-15.6c-0.2-4.7,0.8-9.3,1.2-14c0.2-2,0.4-4,0.1-6c-0.6-4.7-0.9-9.5-2.3-14c-1.6-5-4.2-9.7-6.7-14.4
		c-0.5-0.9-3.5-1.7-4.3-1.1c-5.9,4.3-10.5,0.2-15.7-1.7c-5-1.9-10.5-2.9-15.9-3.2c-2.1-0.1-4.8,2.5-6.4,4.6
		c-3.3,4.3-7.8,4.8-10.7,0.3c-2.5-4-4.6-8.1-10.3-7.5c-4.6,0.4-9.2,0.8-13.7,1.3c-0.5,0-1,0.7-1.3,0.6c-5.6-2.3-10.5-1.1-15.3,2.4
		c-2,1.5-4.8,1.9-7,3.3c-4.8,3-9.2,7.3-15.6,2.9c-1.1-0.8-3.2-0.2-4.9,0c-2.6,0.3-5.7,1.7-7.8,0.9c-7.1-2.8-14.8,0-21.8-2.9
		c-5.7-2.3-11.1-1.3-16.9,0.4c-3.4,1-7.4,0.1-11.1,0.1c-0.3,0-0.6-0.3-0.9-0.3c-7.1-0.1-14.3-0.3-21.4-0.4c-1.3,0-2.6-0.4-3.9-0.2
		c-3.5,0.4-7,0.8-10.5,1.6c-3.5,0.8-7.1,1.6-10.4,3c-2,0.8-3.6,2.7-5.2,4.3c-0.5,0.5,0,1.9-0.5,2.3c-3.7,3.3-7.6,6.3-11.4,9.5
		c-1.3,1.1-2.9,2.3-3.6,3.7c-3,5.8-2.9,5.9-10,3.9c0.2,2.3,0.1,4.3,0.5,6.2c0.7,3.7,2.6,7.5,2.4,11.2c-0.2,5.2,3.3,9.8,1.1,15.4
		c-0.9,2.1,1.6,5.4,2.1,8.3c0.7,3.9-0.4,7-5.2,7.6c0.3,1.6,0.6,2.9,1,4.5c-2.1,1.2-4.1,2.5-6.8,4c9.2,8,3.6,17.8,3.8,26.8
		c0,0.6-1.4,1.5-2.3,2c-1.8,0.9-3.8,1.5-6.5,2.6c4.9,1.8,5.4,3.8,2.8,7.4c-2.1,2.9-3.8,6.4-2.8,9.2c2.7-0.5,4.9-0.6,6.9-1.3
		c6.8-2.3,13.6,2.1,21-1.6c5.8-2.9,13.7-1.7,20.7-2.3c3.3-0.3,6.6-0.9,9.9-0.8c9.7,0.4,19.4,0.7,29,1.9c4.3,0.5,8.3,3,12.4,4.7
		c5.1,2.2,10.2,4.4,15.2,6.9c5.2,2.5,10.3,5.1,15.2,7.9c2.2,1.3,2.4,2.9,1.3,5.8c-2.1,5.6-3,11.7-4.2,17.6c-1.5,7.1-2.7,7.8-9.8,5.7
		c-0.5-0.1-1.2-0.6-1.3-0.5c-3.3,3.3-6.5,0.2-9.5-0.2c0-3,0.2-6.1-0.1-9.1c-0.5-4.6-2.7-6.1-7-4.7c-3,1-5.9,2.2-8.9,3.1
		C648.7,391.8,646.9,391.9,644.3,392.3z"/>
	<path d="M542.9,404.1c4,3.4,9.2,3,10.6,8c0.5,1.9,1,3.8,2,5.5c1.1,2,2.5,3.8,3.9,5.6c1.1,1.4,2.4,2.8,3.6,4.2
		c4.5,5.2,8.9,10.4,13.5,15.5c1,1.1,2.8,1.6,4.3,2.3c4,1.9,4.9,5.9,1.9,9.1c-2.9,3.2-1.6,6.3,1.6,7.2c2.9,5.3,5.2,9.6,7.7,14.3
		c-0.8,0.4-2,0.9-3.8,1.8c2.2,0.9,3.8,1.6,5.8,2.4c-0.6,1.4-1.2,2.6-1.7,3.9c2.4,2,4.8,4.1,6.7,5.7c0.1,2.4,0.1,4.3,0.4,6.1
		c0.1,0.4,1.7,0.4,2.6,0.6c0.3-1.9,0.6-3.9,1-6.7c1.1,1.1,2.6,1.9,3,3c1.6,4.7,2.7,9.5,4.1,14.2c0.9,3.1,1.8,5.9,5.7,6.8
		c1,0.2,2.1,3.7,1.7,5.3c-1,3.5,0.4,5.4,2.4,7.9c3.7,4.5,6.9,9.5,10.3,14.3c2.6,3.8,7.4,5,11.9,3.7c4.2-1.3,8.6-1.9,12.9-2.6
		c7.2-1.2,14.3-2.8,21.5-3.1c9.3-0.4,18.3-3.2,27.9-1.2c6.8,1.4,14,0.6,21,0.4c6.3-0.1,12.5-0.5,18.8-0.9c7.2-0.5,14.3-1.7,21.5-1.9
		c4.2-0.1,8.5,1,12.7,1.8c0.8,0.2,2.2,1.7,2,2.2c-0.3,1-1.4,2-2.4,2.6c-0.8,0.5-1.9,0.5-2.9,0.7c-13.2,1.6-26.5,3.1-39.7,4.8
		c-4.2,0.6-8.7,1.2-12.5,3c-7.1,3.3-14.4,2.8-21.6,1.7c-6-0.9-11.7-1.1-17.8-0.2c-8.3,1.2-16.8,0.4-25.2,0.4
		c-3.6,0-7.2-0.6-10.8-0.6c-0.9,0-2,1.1-2.5,1.9c-0.3,0.5,0.4,1.8,1,2.4c0.7,0.6,1.7,0.8,3,1.3c-1,1.4-1.8,2.6-3.3,4.9
		c3.2,0.4,7.4,2,8.3,0.9c4.4-5.2,8.2-0.7,12.1,0.1c2.2,0.4,4.1,2.1,6.3,2.7c1.1,0.3,2.9-0.2,3.7-1.1c2.5-2.7,4.9-1.9,7.4-0.3
		c4.9,3.1,9.6,6.8,14.8,9.2c4.1,1.9,8.9,2.3,13.4,3.3c0.6,0.1,1.6,0.2,1.9-0.1c5.6-5.8,12.7-1.1,19-2.8c3.8-1,7.9-0.7,11.8-0.9
		c3.3-0.2,4.8,1.6,5.1,4.8c0.6,7.4-2.8,11.2-10.4,12.4c-4,0.6-7.9,2.2-12,2.8c-6.9,1-13.8,1.5-20.7,2.1c-3.5,0.3-6.9,0.4-10.4,0.5
		c-4.4,0.2-8.8,0.1-13.1,0.8c-2.4,0.4-4.5,2-7,2.3c-2.5,0.7-5,1.7-7.6,2c-3.1,0.3-6.2,0.1-9.7,0.1c-0.4,4.4,3,6.3,6,8.4
		c3.9,2.7,7.6,6.8,11.8,7.4c7.2,1.1,6.8,5.4,7.3,10.5c0.2,2.6,2.4,2.8,5,2c1.2-0.4,4,0.5,4.5,1.6c3,6.7,4.7,7.2,11.5,2.4
		c0.3,1.3,0.7,2.4,1.1,4.2c3.7-2.9,7.3-5.7,11.3-8.8c0.5,1.2,1.4,3.2,2.3,5.2c0.7,0.6,1.3,1.3,2,1.9c1.3-1.8,2.7-3.7,3.9-5.4
		c2.9,4,8.6,4.8,12.4,0.1c2.6-3.2,8.3-4.3,7.8-10.1c0-0.5,2-1.7,2.6-1.5c0.9,0.3,1.5,1.7,2,2.7c0.5,0.9,0.8,2,2.3,2.8
		c0.2-3.6,0.4-7.3,0.7-10.9c0.5,0,1-0.1,1.5-0.1c0.3,1.6,0.6,3.1,0.9,4.7c0.4,0.1,0.9,0.3,1.3,0.4c0.6-3.2,1.3-6.4,2-10
		c3.7,0.8,6.9,1.7,10.1,2.1c3.2,0.4,5.3-0.8,5.7-4.6c0.2-1.8,1.3-4.2,2.7-5.1c5-3,3.6-8,4.3-12.3c0.3-1.8,0.1-3.7,0.1-5.4
		c-2.5-1.2-5-2.5-7.6-3.8c0.2-0.7,0.4-1.4,0.7-2.1c1.9,0,3.9,0.4,5.8-0.1c2.5-0.6,5.7-0.7,5.2-5.1c-0.1-1,2.4-3.1,3.9-3.4
		c3.4-0.6,6.3-0.7,7.3-5.1c0.4-1.7,3.7-2.6,6.3-3c0.4-1.7,0.8-3.4,1.2-5.5c4.6,2.1,7,0.1,10.3-2.5c5-3.9,7.6-9.4,11.7-13.8
		c1.1-1.2,2.4-2.7,3.8-3c4.6-0.9,4.9-3.3,2.3-7.6c2.8-0.6,5.1-1.1,8.4-1.8c-0.7,0.8-0.5,0.5-0.3,0.3c8.2-5.1,8-16.7,16.7-21.6
		c1.3-0.7,1.7-3,3.3-4.3c-0.9,3.6-1.4,7.3-2.7,10.7c-4.2,10.7-9,21.2-13.1,32c-2.2,5.8-3.6,12-5.3,18c-0.6,2.1-1,4.2-1.2,6.4
		c-1,8.5-1.3,17-6.2,24.5c-1.8,2.8-2.5,6.4-4.1,9.4c-1.6,3.3-3.6,6.4-5.7,9.9c1.8,0.8,3.8,1.8,5.9,2.8c-0.1,0.5-0.1,1.1-0.2,1.6
		c-2.6,0-5.2-0.3-7.7,0.1c-3.9,0.6-3.7,3.4-2.4,6.4c-2,0.9-4,1.2-5.2,2.4c-1.4,1.4-2.1,3.6-3,5.5c-1,2.2-1.9,4.4-2.9,6.6
		c-1.3,2.9-2.6,5.7-3.9,8.6c-7-2.9-7.7-2.2-10.2,5.8c-1.1,3.7-4.3,6.8-6.6,10.1c-0.5,0.7-1.2,1.2-1.5,1.9c-2.2,4.1-4.3,8.3-6.8,13
		c1.8,0.2,3.6,0.5,5.5,0.8c2.3,5.7,1.7,6.5-4.3,6.8c-3,0.1-6,0.3-9.9,0.5c1.3,2.3,2,3.6,3,5.3c-5.5,0-7.9,2.2-7.5,7.6
		c0.1,1.6-2.2,3.7-3.9,5c-6.5,4.9-14.2,8.7-19.6,14.6c-6.3,7-14.1,9.9-22.5,10.9c-5.3,0.6-10.9-1.9-16.4-2.9
		c-2.9-0.5-5.9-0.8-8.7-1.4c-2.6-0.6-5.2-1.5-7.8-2.4c-1.2-0.4-2.4-0.9-3.5-1.6c-3.6-2.1-7.2-4.1-10.7-6.4c-2.5-1.6-5-3.3-7-5.4
		c-3.7-3.9-7.2-8.1-10.6-12.3c-4.3-5.3-9.6-8.3-16.6-8c-10,0.4-18.9-1.6-25.2-10.5c-4-5.6-19.1-8.3-24.4-4.4
		c5.6,9.8,11,19.9,17,29.5c3.6,5.7,8.4,10.6,13.2,16.7c-2.4-1.2-4.9-1.8-6.7-3.3c-5.5-4.4-11.3-8.6-15.9-13.9
		c-6.1-6.8-11.7-14.3-16.6-22c-4.2-6.6-7.3-13.9-10.7-21c-0.9-1.9-1.6-4-1.9-6c-1.3-9.6-2.4-19.3-3.5-29c-0.4-0.1-0.9-0.2-1.3-0.3
		c-0.7,4.7-2,9.5-1.9,14.2c0.1,5.4,1,10.9,2.3,16.1c1.2,4.8,3.4,9.4,5.1,14.1c0.4,1.1,0.4,2.4,0.2,3.6c-0.4,2.4-1.4,4.7-1.6,7.1
		c-0.4,4.3-2.2,5.7-6.5,5c-6.7-1.1-10.9-4.8-13.1-11.2c-1.4-3.9-3.3-7.4-9.1-5c0.3-5.8,0.9-11.1,0.9-16.3c0-2.4-0.9-4.9-1.8-7.2
		c-0.2-0.5-2.4-1-2.9-0.6c-3.7,3.1-3.9,0.9-4.2-2.3c-0.2-1.7-1.4-3.2-1.9-4.8c-0.6-2-0.9-4-1.6-7.2c-1.5,0.7-3.6,1.2-4.7,2.5
		c-0.5,0.6,0.2,3.1,1.1,4.1c2.3,2.7,1.9,5-0.6,7.8c-1.1-1.4-2.1-2.7-3-3.9c-0.4,3.6-3.5,8,3,9.5c0.5,0.1,0.9,1.9,0.9,2.9
		c0,0.4-1.4,0.8-2.3,1c-0.7,0.1-2-0.4-2.1-0.1c-2.5,4.6-6.6,5.7-11.4,5.9c-0.7,0-1.4,1.3-2.1,2.1c-3.7,3.9-7.2,8-11.2,11.7
		c-1.7,1.6-4.2,2.2-6.7,3.5c0.2,3.6-6.2,12.3-10.3,13.2c-9,1.9-11,0.7-14.1-8.9c-4.3-0.6-4.2,3.4-5.6,5.7c-4.2,6.8-4.1,8,0.8,13.9
		c0.6,0.8,0.7,2,1.2,2.9c0.9,1.9,1.4,4.9,2.8,5.3c2,0.6,5.4,0.2,6.7-1.2c3-3.4,4.9-7.7,7.6-11.4c0.9-1.2,3.1-2.6,4.1-2.2
		c4.6,1.5,7.2-0.9,9.6-4.1c0.6-0.8,1.2-2.4,1.6-2.3c5.7,0.7,8.3-4.5,11.5-7.2c4.6-3.9,7.3-10,11.2-15.8c4.5-0.9,6.8,1.5,6.8,8
		c0,2.1,0.2,4.3,0.9,6.1c1.4,3.4,3.5,6.6-0.4,9.8c-0.3,0.2,0.8,3.3,1.9,3.9c2.7,1.5,3.7,2.7,3.8,6.3c0.1,3.9,2.9,7.7,4.6,11.5
		c0.6,1.4,2,3.2,1.5,4.1c-0.5,1.1-2.5,2-4,2.1c-9.4,0.4-18.8,1.2-28.1,0.5c-5.3-0.4-10.4-3.4-15.6-5.4c-2.5-0.9-4.7-2.4-7.2-3.2
		c-4-1.3-5.9,0.6-6.4,4.8c-0.7,5.3-0.7,10.8-4.8,15.2c-1.9,2-2.2,4.3,1.9,4.6c1,0.1,2.4,0.7,2.9,1.5c1.6,2.5,2.8,5.3,5.1,7.2
		c0.4,2.4-3,3.5-6.2,5.2c-4.7,2.5-9.1,5.6-13,9.1c-1.4,1.3-1,4.6-1.4,7c0.5,0.1,1,0.2,1.5,0.3c-1.8,0.9-3.6,1.9-5.9,3
		c4.4,2.8,8.1,5,11.6,7.4c1.5,1,2.8,2.4,3.8,3.9c4,6.4,6.2,7.2,13.5,4.9c1.5-0.5,3.4,0.5,5,0.4c1.1-0.1,2.8-0.7,3-1.5
		c0.8-2.4,1.1-5.1,1.6-7.5c-4.1-2.1-8.2-4.3-12.5-6.5c-2.2,1.5-2,7.8-6.5,4.6c-1.9-1.4-1.6-5.8-2.3-8.8c1.7-0.4,3.4-0.7,5-1.1
		c-0.1-0.1-0.1-0.1-0.2-0.2c2.1-0.8,4.2-2.1,6.3-2.3c5.9-0.7,11.9-0.7,13-8.6c0.1-1,2.1-1.7,3.2-2.5c-1.3-1.7-2.6-3.4-4.2-5.3
		c-1.5,1.3-3,2.5-4.8,4.1c-1.4-1.1-3.1-2-4.1-3.3c-2.9-3.7-1.4-7.7,3.2-8.5c4.4-0.7,8.9-1.2,13.6-1.7c0.9-7.2,7.2-5.5,11.7-6.7
		c2.8-0.8,5.8-1.3,8.8-1.3c3.1-0.1,6.8-0.5,9,1c4.7,3.2,10.1,6.8,12.5,11.6c2.1,4.3,0.6,10.4,0.4,15.7c-0.1,2.6-0.8,5.2-1.5,7.8
		c-0.9,3.1-0.1,5.3,2.6,7.3c3.6,2.6,4,6.1,2,10c-2.4,4.4-0.4,10.6,4,13.1c4.9,2.8,7.5-0.4,10.9-5c0.9,2.8,1.9,4.6,2,6.3
		c0.1,2.9,1.1,4.4,4.1,4.4c4.6,0.1,9.6,1.8,12.2-3.4c-2-2.3-3.3-4.6-5.3-5.9c-1.4-0.9-3.7-0.2-7-0.2c-3.9-6.9-5.7-16.1-5.5-25.8
		c0-1.2-0.2-2.5-0.7-3.5c-1.5-3.1-0.5-5.3,2.2-7.4c3.7,4,7.4,8,11.1,12c-2.1,2.1-2.1,2.1-10.5-0.1c1.9,2.3,3.3,3.5,4.1,5
		c1.6,3.1,2.9,6.3,4.1,9.5c1.3,3.3,3.4,4.3,6.9,4.2c8.1-0.2,10.4,1.8,11.4,9.7c0.2,1.6-0.8,3.3-1.2,5c-1.4-0.9-2.8-1.7-4.1-2.7
		c-0.5-0.4-0.9-1-1.3-1.5c-4,2.5-3.5,2.2-1.5,6c1.6,3.2,2.5,7,2.6,10.6c0.3,5.9-0.3,11.9-0.6,17.9c-0.3,6-2.2,7.1-7.9,5.3
		c-7.6-2.3-15.3-4.3-22.8-6.6c-3.8-1.2-4,0.8-4.4,3.7c-1.4,10.3-2.8,20.6-4.8,30.8c-1.5,7.7-3.1,8.5-10.7,8.5c-17.5,0-35,0-52.5-0.1
		c-2.1,0-4.4,0.4-4.7-3c-0.1-0.7-2.4-1-2.9-1.9c-1.1-2.2-2.9-5-2.2-6.8c1-2.8,3.3-0.6,5.3,0.1c2,0.6,4.4-0.1,6.6-0.2
		c-1.1-1.7-2.2-3.5-3.3-5.2c-0.1-0.1-0.4,0-0.5-0.1c-8.1-8.5-16-1.2-23.9,0.4c-10.9,2.3-21.2,7.2-32.8,5.9c-3.1-0.3-4.2-1.4-3.1-4.5
		c2.2-5.9,4-11.9,6.6-17.6c0.8-1.8,3.7-3.2,5.9-3.7c6.1-1.6,12-3.3,17-8.3c-4.1-3.3-7.8-6.4-11.6-9.2c-2.4-1.7-6.2,0-6.9,3.3
		c-1,4.7-1.8,8.1-8,4.7c-2.1-1.2-5.8,0.2-8.6,1c-5,1.4-8.8-0.5-12.2-3.7c-2-1.9-3.6-2.4-6-0.4c-0.9,0.8-2.8,0.5-4.3,0.6
		c-4.3,0.2-8.6,0.5-12.8,0.5c-1.1,0-2.9-0.3-3.2-1c-2-5.3-5.7-6.4-10.7-4.7c-0.3,0.1-0.8-0.3-2.6-1.1c3.8-2.3,6.6-4.5,9.7-5.6
		c3.2-1.1,4.7-2.3,4.2-6c-0.2-1.2,1.4-3.8,2.5-4c5.1-0.9,7.9-5.8,5.4-10.3c-0.6-1.1-1.3-2.2-2.4-4.1c3.5,0.2,6.1,0.4,8.8,0.5
		c-0.3,1.4-0.6,2.7-1,4.5c2,0,4.1,0,4.8,0c2.1,2.9,3.5,4.9,5,7c0.7-0.6,1.4-1.2,2-1.8c0.4-0.7,1.3-1.6,1.1-2.1
		c-2-7.3,3.1-13.1,4-19.7c0.2-1.3-0.4-3-1.2-4c-1.7-2.1-3.8-3.8-5.7-5.8c-5.3-5.9-7.2-5.9-13.8-0.7c-2.4,1.9-5,3.6-7.5,5.4
		c-0.7,0.5-1.7,1.1-1.7,1.7c-0.9,7.6-9.5,5.5-12.2,10.7c-0.4-0.2-0.8-0.3-1.1-0.5c-0.1-1.6-0.4-3.1-0.4-4.7c0-15.8-0.1-31.7,0-47.5
		c0-1.7,0.9-4.3,2.2-4.8c3.1-1.5,6.4-4.7,10-1.7c1.4,1.2,1.6,3.8,2.7,6.6c0.9-0.2,2.8-0.3,4.5-1c5.9-2.4,6.7-2.1,7.9,4.2
		c0.8-0.1,1.9,0,2.3-0.4c5.3-6.5,11.9-7.3,19.5-5.3c3,0.8,6.3,1.1,9.3,0.8c1.6-0.1,3.7-1.5,4.6-2.9c4.2-7.2,4.7-7.5,12.5-3.4
		c5.8-12.2,11.7-24.3,17.4-36.4c2.1-4.4,3.7-9.1,6.2-13.3c2.1-3.6,5.1-6.6,7.5-10.1c1.1-1.6,1.3-3.7,2-5.5c0.8-1.9,1.7-3.7,2.5-5.5
		c0.5-1,1.3-2,1.2-3c-0.2-3.6,0.9-6.4,3.9-8.7c2.7-2,2.1-4.8,0.1-7c-2.1-2.2-3.9-1-5.9,0.8c-4.1,3.7-8.4,7.1-12.9,10.8
		c-1.8-0.5-3.8-1.1-6.2-1.7c-0.5,5.6-3.9,5.5-7.8,4.7c-1.9-0.4-4-0.9-5.9-0.6c-1.2,0.2-3.1,1.9-3.1,2.8c0.3,4.9-1.9,7.2-6.5,8.3
		c-2.3,0.5-4.8,1.8-6.3,3.5c-4.9,5.6-10.6,5.1-15.5-1.6c-0.7-0.9-1.5-1.7-2.2-2.5c4.8-7.4,12.9-2,19.4-4.9c-1-0.9-1.7-1.6-3-2.9
		c2.8-1.2,5.3-2.4,8-3.4c31.5-11.6,61.8-25.6,91.1-41.9c4.4-2.4,8.8-4.7,13.4-6.7c8.6-3.9,15.3-10.2,22.7-15.8
		c6.9-5.3,6.9-11.1,6.1-17.8c-3.2-27.9-6.9-55.7-9.9-83.7c-1-9.5-2.8-18.6-7-27.2c-0.5-1.1,0.6-3,0.5-4.5c-0.1-1.4-0.5-3.9-1.1-4.1
		c-5.4-1.1-5.7-5-4.3-8.6c2.3-6.2,2.7-12,1-18.4C541.7,410.5,542.6,407.7,542.9,404.1z"/>
	<path d="M860.8,783.7c1.9-0.5,3.9-1.3,5.9-1.6c5.7-0.8,8-3.9,5.5-8.9c-2.3-4.6-1.3-6.9,2.9-9.5c3.5-2.2,6.1-5.8,9.2-8.6
		c2.8-2.5,6.1-4.9,9-6.8c5.7-3.9,8-9.9,12.3-14.5c1.9-2,4-3.8,6-5.8c0.6-0.5,1.2-1.2,1.3-1.9c1.4-5.4,3-10.8,3.9-16.3
		c0.8-4.7,3.6-5.1,7.2-4.5c1.8,0.3,3.4,1.3,5.2,1.6c5.8,1.3,7.6,0.3,9.9-5.2c0.6-1.5,1.4-3.3,2.6-4.1c1.9-1.3,4.3-2.4,6.5-2.4
		c0.9,0,1.8,3.2,3,5.6c0.3,0.1,1.8,0.1,2.8,0.9c2.5,1.9,2.5,4.1-0.5,5.2c-3.6,1.3-7,1.7-4.2,7.2c0.8,1.5-2.5,5-3.8,7.7
		c-1.3,2.5-3,4.9-3.5,7.6c-1.4,6.7-9.4,11.8-15.7,9.2c-0.4,3.3-0.6,6.6-1.3,9.9c-0.9,4.8,2.5,4.5,6,4.9c-0.5,2-0.9,3.8-1.4,5.7
		c4.1,2.9,7.3,7,13.7,5.2c3.8-1.1,6.5,2.8,5.9,6.9c-0.1,0.8-0.2,1.6-0.3,2.5c-0.4,6.4-1.6,7.1-7.5,4.3c-0.8-0.4-1.8-0.5-3-0.9
		c-0.2,1.7-0.4,3.1-0.6,5.1c-3.1-0.4-6-0.8-9.2-1.2c-0.6,4-3.3,6.9-2.2,12c0.7,3.2,0.2,8.3-0.8,12.1c-1.6,6.1,0.2,11.1,2.3,16.3
		c0.4,1,1.3,2.3,2.1,2.5c5.5,1.2,5,5.3,4.9,9.4c-0.1,2.6,0.1,5.2-0.1,7.7c0,0.9-0.4,2.2-1,2.6c-3.9,2.3-6.1,5.4-6.2,10.1
		c0,0.7-0.8,1.4-1.3,2.1c-4.7,6-4.7,6,2.1,10.2c0.4,0.2,0.7,0.6,1.8,1.5c-2.7,0.2-4.6,0.4-6.5,0.4c-15,0-30,0.1-45-0.1
		c-1.6,0-3.2-1.7-4.8-2.3c-3.5-1.3-7-2.4-10.5-3.5c-1.7-0.5-3.8-0.2-5.2-1c-1.3-0.8-2.5-2.7-2.7-4.2c-0.1-0.8,2-2.7,3.1-2.8
		c5.4-0.4,6.2-3.3,6.4-8.2c0.2-5.4,2.5-10.7-0.8-15.9c-0.3-0.5,0.2-1.6,0.5-2.3c3.2-6.8,7.2-13.3,9.3-20.4
		c1.5-4.9,0.3-10.6,0.3-15.7C869.3,788.9,860.6,795.4,860.8,783.7z"/>
	<path d="M847.1,391.9c-2,2.5-4.1,5-6.9,8.6c0-7.7,0.1-13.9-0.1-20.1c0-1.1-1.3-2.3-2.3-3.2c-1.1-0.9-2.5-1.6-3.8-1.9
		c-0.9-0.2-2.4-0.1-2.9,0.4c-3.5,3.7-7.3,4.7-12,2.6c-1.3-0.6-3-0.5-4.4-0.2c-3.2,0.7-6.1,1.8-7.7-2.7c-0.3-0.8-2.6-1.1-4-1.3
		c-2.1-0.3-4.3-0.3-7.5-0.4c-3,4.2-8.1,7.3-14.7,8.3c-6.4,0.9-12.4,1.4-16.2-5.1c-1.9,3.6-3.5,6.6-5.1,9.7c-0.2,0.4-0.4,1-0.3,1.4
		c0.2,2.2,8.7,9.1,10.9,8.7c6.5-1.1,12.9-2.4,19.4-3.7c1.2-0.3,2.3-1.3,3.5-1.7c1.2-0.4,2.5-0.3,3.7-0.5c0.2,0.7,0.4,1.4,0.6,2
		c-3.9,1.5-7.8,3-11.7,4.5c-1.7,0.6-3.9,0.5-5.1,1.5c-4.1,3.7-8.4,2.9-13,1.4c-6.5-2.2-13.2-3.4-19.2-7.4
		c-6.5-4.3-13.7-5.3-20.7-0.1c-3.1,2.3-6.5,0.5-8.3-3.4c-2.1-4.6-4.4-9.1-6.7-13.5c-1.5-2.9,3-10.2,6.9-11.8
		c5.4-2.2,10.5-5.4,16-7.3c7.2-2.4,12.2-9.6,20.6-9.1c5.1,0.3,10.2,0.7,15.3,0.6c3.6-0.1,7.2-1,10.8-1.4c2.4-0.3,5.1-1.1,7.3-0.6
		c12,3.1,23.7,2.2,35.5-1.2c7.5-2.2,13.3,1.7,16.5,8.3c6.1-1.3,5.5-1.8,4.5-7.4c-0.6-3.7,1.4-8.3,3.4-11.9c1.3-2.3,3.4-0.3,3.4,1.7
		c0,1.8-1.2,3.7-1.6,5.6c-0.5,2.1-0.9,4.3-1.3,6.5c0.8,0.4,1.5,0.9,2.3,1.3c0.9-1.7,1.7-3.5,2.7-5.4c4.1,6.4,3.8,10.4-0.1,15.1
		c-1.5,1.8-2.7,4.2-3.1,6.5c-1.8,8.8-3.2,17.8-4.8,26.7L847.1,391.9z"/>
	<path d="M660.2,483.1c1.1-5.7,3.6-7.6,9.8-6.4c8.6,1.6,16.8,3.5,24.2,8.9c5.4,4,11.5,4.3,17.9,0c4.1-2.7,9.8-3.2,14.8-4.3
		c5.1-1,10.4-1.3,15.6-2.3c4.5-0.8,5.5,1.9,4.3,4.8c-1.3,3.2-3.6,6.3-6.3,8.4c-4.8,3.7-10.7,6.1-15.4,9.8c-3.9,3.1-7.3,7-10,11.2
		c-3.4,5.3-6.8,6.8-12.4,2.5c-4-3.1-7.5-2.7-11.9-2.3c-3.3,0.3-7.4-1.2-10.2-3.3c-5-3.7-9.8-7.8-13.5-12.7
		C663.9,493.4,662.4,488,660.2,483.1z"/>
	<path d="M1012.8,711.2c-5.8-3.5-10.8-6.7-15.8-9.7c-5.2-3.1-12-5-15.4-9.5c-3.7-4.9-11.5-3.3-13.3-9.6c0.3-0.5,0.7-1,1-1.6
		c23.1,14.4,46.2,28.9,69.3,43.3c-0.2,0.3-0.3,0.7-0.5,1c-1.3-0.4-2.6-0.9-4-1.1c-1.6-0.2-3.8-0.9-4.7-0.1c-4.1,3.6-7.9,2.1-11.9,0
		c-1.4-0.8-3.2-1.7-4.6-1.5c-1.6,0.2-3.9,1.3-4.5,2.6c-0.5,1,1.1,3.1,2,4.5c0.6,0.8,1.8,1.2,2.8,1.8c-9.7,7.6-9.7,7.6-13.9,7
		c0.5-1.6,1.1-3,1.5-4.5c0.9-3.2-0.6-4.6-4.1-4.6c-2.3,0-4.6-1.1-7-1.3c-1.5-0.1-3.1,0.6-4.6,0.9c0.8,1.1,1.6,2.2,2.5,3.3
		c1.1,1.4,2.1,2.8,3.2,4.2c-1.8-0.1-3.6-0.1-5.4-0.2c-1.4-0.1-2.9-0.8-4-0.3c-6.8,2.7-17,0.8-22.2-4.3c-0.6-0.6-1-1.4-1.6-1.8
		c-6-4-6-4.2-0.2-9.5c3,3.5,5,2.2,6.2-1.4c1.2-3.7,3.2-4.4,6.8-3.3c3.5,1.1,7.4,0.8,10.9,2c3.4,1.2,6.2,3.7,9.5,5.1
		c1.8,0.8,4.5,1.5,5.8,0.7c4.6-2.8,8.7-6.3,13-9.5C1010.5,713.2,1011.3,712.5,1012.8,711.2z"/>
	<path d="M851.7,604c13.8,9.4,27,18.1,39.8,27.5c2.7,2,3.9,6.1,2.5,10.1c-1.8,5.6-3.4,11.4-5.2,17.4c-2.6-0.7-3.8-2-3.3-5.4
		c0.4-2.8,0.4-5.9-0.5-8.5c-1.1-3.4-1-5.6,2.6-7.2c1.1-0.5,2.6-2.3,2.4-3.2c-0.4-1.7-1.7-4.4-2.9-4.5c-7.4-0.9-13.1-5-19-9
		c-0.5-0.3-1.2-0.2-2.9,0.8c2,2.3,3.8,4.9,6,7c2.3,2.2,2.9,4.1,2.3,7.4c-1.1,6-0.8,12.3-1.8,18.3c-1.7,9.9-3.7,19.7-6.2,29.4
		c-0.6,2.4-3.3,4.3-5.8,7.2c1.8-10.3,4.4-19.6,4.8-29c0.4-9.6,3.2-19.7-0.5-29.1c-0.6,0-1.2,0-1.7,0.1c0,6.2,0,12.3,0,18.5
		c-0.2,0-0.4,0-0.6,0C858.4,636.2,855.2,620.8,851.7,604z"/>
	<path d="M848,402.5c1.6,1.3,3.4,2.4,4.6,4c0.4,0.5-1.1,2.4-1.7,3.6c-0.6,1.3-1.5,2.5-1.8,3.9c-1.1,4.2-2,8.5-2.9,12.8
		c-0.2,1.2-0.5,2.8,0.1,3.8c4.5,8.2,2.8,15.9-1.3,23.7c-3.1,5.9-6,11.9-8.9,17.9c-0.5,1-1.2,1.9-2.4,3.9c0-5.9-0.4-10.6,0.1-15.2
		c0.5-4.6,1.9-9,3-13.9c-3.4,2.5-6.3,4.6-9.4,6.8c-3.1-2-4.5-4.2-3.4-8.2c0.7-2.5-0.2-5.4,0.2-8c0.3-2.2,1.3-3.6,4.5-2.9
		c4,0.8,6.8-3.8,5-7.6c-2-4.1,0.8-7.3,6.4-6.6c2.7,0.4,3.5-0.4,4.4-2.5c2-4.6,5.8-8.9,1.9-14.7C846.8,403,847.4,402.8,848,402.5z"/>
	<path d="M634.1,835.9c3.6-0.7,5.6-2.2,6.6-6.4c0.5-2.4,5-4,7.7-5.9c6,8.3,6,8.3,12.7,5.2c-2.2,7,3.2,6.9,8.9,7.9
		c-2.5,1.2-3.9,1.7-4.9,2.5c-1.1,0.8-1.9,1.9-2.8,2.9c1.3,0.5,2.6,1.4,3.8,1.4c5,0,9.9-0.6,14.9-0.5c2.6,0.1,5.2,1.1,8.5,1.9
		c2.8-3.4,4.2-3.3,7.5,1.4c4.8,6.7,3.9,8.5-4.5,9.7c-2.9,0.4-5.8,1.4-9.2,2.2c0.6-1.3,1.3-2.4,1.4-3.5c0.3-2.3,0-4.1-3.3-4.1
		c-4.7-0.1-9.5-1.1-14.2-1.4c-2.6-0.2-5.6-1.7-7.5,1.9c-0.4,0.8-2.9,1.2-3.9,0.7c-2.2-1.1-4-2.9-6-4.4c1.1-1.4,2.2-2.9,3.3-4.3
		c0.5,0.1,1.1,0.1,1.6,0.2c-1.6-4-3.3-8-5.5-13.5c-2.1,2.6-4,4.3-5,6.4c-1.7,3.4-4.1,5.5-7.8,4.6c-1.2-0.3-2-2.6-3-4
		C633.7,836.6,633.9,836.2,634.1,835.9z"/>
	<path d="M768.1,832.1c0-0.8-0.2-1.8,0-2.5c0.7-1.9,1.7-3.7,2.5-5.5c1.4,1.3,3.6,2.5,4,4.1c1.3,5.3,5.9,3.7,9,4.3
		c2.7,0.5,5.6-0.5,7.1-4c0.8-1.8,3.4-2.8,5.2-4.2c1.4,2.2,3.3,4.3,4,6.7c0.4,1.6-0.9,3.8-1.7,5.5c-1.9,3.7-4.2,7.1-6.1,10.8
		c-5.8,11.5-12.6,8.4-18.4,0.9c-3.4-4.3-4.5-10.3-6.7-15.6C767.3,832.5,767.7,832.3,768.1,832.1z"/>
	<path d="M634.1,835.9c-0.2,0.4-0.4,0.7-0.7,1.1c-1.3,0.5-2.6,1-4,1.4c-3.4,1.2-6.7,2.7-9.7-1.4c-1.3-1.8-4-2.5-6.3-3.9
		c0,0.3-0.1,0,0-0.2c1.2-2.3,8.1,2.6,5.6-4.5c-1-2.9-1.3-6.3-2.7-9c-2.4-4.7-5.3-9.1-1.8-14.4c0.7-1.1,1.9-2.5,3-2.6
		c1.2-0.1,2.7,0.9,3.6,1.8c1.3,1.4,2.1,3.3,2.4,3.7c-0.3,5-0.9,8.9-0.6,12.8c0,0.8,2.8,1.7,4.4,2c6.1,1.3,6.7,2.6,3.2,7.8
		C631.8,832.3,633,834.1,634.1,835.9z"/>
	<path d="M1031.8,853.3c2.7,0.5,4.3,0.8,5.8,1c0.3,0.4,0.7,0.9,1,1.3c-2.1,1.5-4.2,3-6.1,4.3c2,6.3,0.7,7.9-6,7.3
		c-0.4-5.1-4-6.6-8.7-6.6c-0.4-4.2,0.7-6.5,5.3-6.2c3.3,0.2,5.3-0.3,3.5-4.9c-1.2-3-0.5-7.1,0.3-10.4c0.8-2.8,0.3-4-2-5.6
		c-1.5-1.1-2-3.6-3-5.5c1.1-0.5,2.9-1.8,3.3-1.4c1.5,1.4,3.7,3.2,3.7,4.9c0,4.6,0.9,8.3,4.4,11.5
		C1036.9,846.3,1035.2,849.8,1031.8,853.3z"/>
	<path d="M957.6,760.7c0.6,1,1,2.2,1.7,3c1.2,1.3,2.6,2.3,3.9,3.5c1.7,1.4,4.1,2.5,4.9,4.3c1.4,3.1,2.9,3,5.4,1.7
		c1.2-0.6,2.7-0.6,4.1-0.8c0.3,1.6,1,3.3,0.7,4.7c-1.3,7-8.7,10.9-15.1,7.8c-1.4-0.7-3.1-2.8-2.9-4.1c0.6-5.9-2.7-10.6-4-15.9
		c-0.3-1.2-0.2-2.5-0.2-3.8C956.6,761,957.1,760.8,957.6,760.7z"/>
	<path d="M718.4,413.2c3.5,11.2-0.6,21.9,1.7,33.8c-3.6-0.8-7.4-0.5-8.9-2.2c-1.6-1.8-1-5.6-1-8.5c0-1.1,0.7-2.1,1-3.2
		c1.4-5.7,2.8-11.5,4.3-17.2C715.7,415.1,716.8,414.6,718.4,413.2z"/>
	<path d="M960.9,786.2c2.3,2.9,4.7,5.6,6.5,8.6c1.6,2.7,2.8,5.9,3.5,9c0.2,1.1-1.7,2.6-2.6,3.9c-0.7-1.1-1.7-2-2.1-3.2
		c-1.5-4-2.6-8.1-4.2-12c-0.3-0.8-2.7-1.8-3.4-1.4c-6.4,3.9-13.1,0.5-19.6,0.8c-0.8,0-2.5-2.6-2.3-3.5c0.4-1.2,2.2-2.6,3.5-2.8
		c2.7-0.5,5.5-0.5,8.2-0.3c2.8,0.1,5.5,0.7,8.3,1C958.2,786.3,959.7,786.2,960.9,786.2z"/>
	<path d="M389.8,659.7c-1.6,1.2-3.3,2.4-5.6,4c0.2,5.5-2.8,9.2-9.5,9.7c-3.8,0.3-7.3,4.7-11.3,0.4c-3.1-3.4-3-4.8,1.3-6.4
		c8-3.1,16-6,24-9C389.1,658.8,389.5,659.3,389.8,659.7z"/>
	<path d="M740.7,849c-1.9,4.3-4.6,1.7-7.5-0.2c-0.5,1.8-0.6,3.2-1.2,4.4c-1.2,2.4-2.2,4.8-5.9,2.8c-1.6-0.8-4.2-0.4-6.1,0.2
		c-4.8,1.3-7.4-0.6-9.7-6.3c3.7-0.1,6.9-0.7,9.8-0.1c5.2,1.2,6.9,0.5,9.1-4.3c0.7-1.6,2.5-2.7,3.9-4.1c0.8,1.2,1.3,2.6,2.3,3.6
		C736.8,846.3,738.5,847.3,740.7,849z"/>
	<path d="M571.8,698.8c2.6,2.3,4.8,4.3,7.1,6.3c0.5-0.2,0.9-0.4,1.4-0.6c-0.6-3.3-1.2-6.6-2.1-11.1c3.7,3.7,8,5.5,6.3,11.2
		c-0.4,1.5,1.4,3.6,2,5.5c1,3.4-0.8,5.3-4.3,4.9C574.5,713.9,568.9,706.8,571.8,698.8z"/>
	<path d="M684.6,762.8c-6,0.9-8.7-1.8-11.6-4.5c-1.7-1.5-3.8-2.5-5.9-3.5c-2-0.9-4.4-1.1-6.2-2.4c-3.8-2.7-7.5-5.7-10.9-8.9
		c-1.4-1.3-2.1-3.2-3.1-4.9c0.5-0.5,1.1-1,1.6-1.5C660.2,745.5,671.8,753.7,684.6,762.8z"/>
	<path d="M1041.1,774.4c-10.2-4-19-7.5-27.8-11c3.2-5.6,9.5-6.2,13.9-1.6c2.5,2.6,6.3,3.9,9.1,6.3
		C1038.1,769.6,1039.2,771.9,1041.1,774.4z"/>
	<path d="M709.8,795.3c-0.5-2-1.8-4.3-1.4-6c0.3-1.2,3.1-1.8,4.9-2.5c1.2-0.5,3.1-0.3,3.6-1.1c2.6-4.3,6.2-2.7,9.9-2.4
		c-0.1,4.3-1.5,7.2-5.7,8.3C717.6,792.5,714.2,793.8,709.8,795.3z"/>
	<path d="M992.2,791.9c-2.2-0.5-4.4-1.1-6.1-1.5c0.6-2.3,2.3-4.8,1.7-6.6c-1.7-4.9,0.7-11-4.7-15c-0.9-0.7,1.1-5.1,1.7-7.7
		c0.5,0.1,1,0.1,1.4,0.2c2.6,10,5.2,20,7.8,30C993.4,791.4,992.8,791.6,992.2,791.9z"/>
	<path d="M997.7,851.4c4,4.2,7.5,7.7,10.8,11.5c0.4,0.4-0.3,2.7-0.8,2.9c-2.8,0.8-5.7,1.6-8.5,1.7c-0.9,0-2.6-1.9-2.8-3.1
		c-0.5-3-0.5-6.2-0.5-9.3C996,854.2,996.8,853.3,997.7,851.4z"/>
	<path d="M448.3,867.8c-9,0-18.1,0.2-27.1-0.2c-1.7-0.1-3.2-3.1-4.7-4.8c0.3-0.5,0.5-1,0.8-1.5c5.8,1.4,11.8,2.3,17.4,4.2
		c3.2,1.1,5.7,1.1,8.7,0.1c1.5-0.5,3.3,0.1,5,0.3C448.4,866.5,448.4,867.2,448.3,867.8z"/>
	<path d="M403.6,831.7c4,7.3,4,9.1-0.1,11.9c-1.4-9.1-8.5-1.5-13.4-5.2C394.9,836,399.1,833.9,403.6,831.7z"/>
	<path d="M738.2,867c5.6-4.5,11.4-6.1,17.5-6.9c0.8-0.1,2.3,0.9,2.6,1.7c0.3,0.8-0.4,2.6-1,2.9C751.4,866.8,745.6,869.1,738.2,867z"
		/>
	<path d="M407.3,703.7c5.6-0.8,10.3-1.5,15.1-2.1c0.4,0.4,0.9,0.8,1.3,1.1c-1.1,1.7-1.8,4.3-3.3,5.1
		C413.6,711.2,413.5,711,407.3,703.7z"/>
	<path d="M818,867.5c-4,0-8.1,0-13.4,0c1.9-3.3,3.3-6,4.9-8.8c3.6,3,6.4,5.3,9.2,7.6C818.4,866.7,818.2,867.1,818,867.5z"/>
	<path d="M1010.4,857.9c-2.6-5.1-4.8-9.1-6.6-13.3c-0.4-0.9,0.9-2.5,1.4-3.7c1.1,0.6,2.6,1,3.2,1.9
		C1010.8,847,1013.1,851.4,1010.4,857.9z"/>
	<path d="M753.9,469.1c-1.9,0.8-3.5,1.5-5.2,2.3c-0.3-0.6-0.8-1-0.6-1.3c2-5.6-1.6-8.5-5.1-11.6c-1.1-1-1.9-2.4-2.7-3.7
		c-0.1-0.1,1.7-1.8,2-1.6c1.4,0.7,2.8,1.5,3.6,2.8C748.6,460.2,751.1,464.5,753.9,469.1z"/>
	<path d="M567.4,683.1c1.9,4.3,3.6,7.9,5,11.7c0.2,0.7-1.5,2.9-1.8,2.8c-1.6-0.5-3.9-1.2-4.5-2.4
		C564.5,691.5,563.8,687.6,567.4,683.1z"/>
	<path d="M923.2,685.6c5-2.7,11-1.7,13.2,1.7c0.6,0.9,0.9,2.6,0.4,3.4c-0.4,0.7-2.3,1.1-3.1,0.7
		C930.3,689.9,927.1,687.9,923.2,685.6z"/>
	<path d="M769,578.3c-1.5,9.3-7.1,12-13.2,7.1C760,583.1,764,580.9,769,578.3z"/>
	<path d="M846.6,707.6c2.6-5.8,3.1-13.2,11.6-14.9C858.6,701.1,850.1,702.4,846.6,707.6z"/>
	<path d="M846.9,392.1c5,0.1,7.6,3,6.8,8c-0.1,0.7-1.2,1.9-1.8,1.9c-1-0.1-2.6-0.7-2.9-1.5c-0.9-2.8-1.4-5.7-2-8.5
		C847.1,391.9,846.9,392.1,846.9,392.1z"/>
	<path d="M882,379.8c0.1-5.8,5.5-6.7,8.6-10.7C890.6,377.4,888.5,379.9,882,379.8z"/>
	<path d="M906.2,641.4c4.2,2.8,8.3,5.7,13,8.9c-6.7,0.9-11.8-2.1-13.9-7.7C905.6,642.2,905.9,641.8,906.2,641.4z"/>
	<path d="M748.7,848.6c1.4-1.2,2.7-2.4,4.2-3.5c1.1-0.8,2.4-1.5,3.7-2c0.2-0.1,1.4,1.3,1.3,1.7c-0.6,1.8-1.2,4.3-2.5,4.9
		c-1.9,0.8-4.5,0.2-6.8,0.2C748.6,849.5,748.7,849.1,748.7,848.6z"/>
	<path d="M775.5,581.2c1.2,2.3,2.8,4.1,2.5,4.7c-1,1.7-2.8,3-4.5,4c-0.3,0.2-3-2.6-2.7-3C771.7,585.1,773.3,583.6,775.5,581.2z"/>
	<path d="M676.2,783.6c-3.1-0.3-5.7-0.2-8.2-0.8c-0.8-0.2-1.6-1.9-1.7-3c0-0.5,1.5-1.6,2.4-1.7C672.2,777.7,675.4,778,676.2,783.6z"
		/>
	<path d="M827.7,392.8c-1.5,5.1-3,10.2-4.6,15.6c-2.7-3.2-1.4-8.7,3.3-15.9C826.8,392.6,827.3,392.7,827.7,392.8z"/>
	<path d="M882,671.5c-1.8-3.2-7.1-4.1-3.9-9.3C879.8,665.2,887.9,664.4,882,671.5z"/>
	<path d="M1012.1,858.6c2.2,1.4,3.4,2.2,5.3,3.3c-1.9,2.3-3.5,4.3-5.1,6.3c-0.6-0.3-1.1-0.6-1.7-0.9
		C1011,864.7,1011.5,862,1012.1,858.6z"/>
	<path d="M647.5,821.9c-5.8-3.6-5.9-6,0-9.5C647.5,815.7,647.5,818.6,647.5,821.9z"/>
	<path d="M609.2,792.4c4.1,0.4,7,0.7,10.1,1.1C616.8,799.1,614.3,799,609.2,792.4z"/>
	<path d="M857.8,792.8c1.6,1.7,2.6,2.7,3.6,3.8c-1.5,1.1-2.8,2.6-4.5,3.1c-0.7,0.2-3-2.2-2.8-3C854.5,795.3,856.2,794.4,857.8,792.8
		z"/>
	<path d="M450.1,672.1c-1.1,1.9-2.1,3.7-3,5.4c-0.7,1.3-1.3,2.7-2.5,3.8C443.7,675,446.6,671,450.1,672.1z"/>
	<path d="M718.4,768.6c-2.9,5-8.8,6.9-12.1,4.1C710.6,771.2,714.5,769.9,718.4,768.6z"/>
	<path d="M614,749.7c-1.9-0.2-3.9,0-5.6-0.8c-1.1-0.5-1.5-2.4-2.2-3.7c1.2-0.3,2.7-1.2,3.7-0.8c2,0.9,3.7,2.4,5.5,3.7
		C615,748.6,614.5,749.2,614,749.7z"/>
	<path d="M531.7,397.5c0-2.5,0-4.9,0-8c5.9,2.6,1.7,5.5,2,8C533,397.5,532.3,397.5,531.7,397.5z"/>
	<path d="M561.6,686.9c-2.1,4.9-4.7,4.4-7.4,0.5C556.6,687.2,559.1,687.1,561.6,686.9z"/>
	<path d="M634.6,730.4c-2.9-1.9-5.8-3.9-8.8-5.8c0.4-0.6,0.8-1.2,1.2-1.7c2.9,2,5.8,4,8.7,6C635.4,729.3,635,729.9,634.6,730.4z"/>
</g>
</svg>
