<?xml version="1.0" encoding="iso-8859-1"?>
<!-- Generator: Adobe Illustrator 19.0.0, SVG Export Plug-In . SVG Version: 6.00 Build 0)  -->
<svg version="1.1" id="Layer_1" xmlns="http://www.w3.org/2000/svg" xmlns:xlink="http://www.w3.org/1999/xlink" x="0px" y="0px"
	 viewBox="0 0 512 512" style="enable-background:new 0 0 512 512;" xml:space="preserve">
<path style="fill:#FDC794;" d="M195.157,450.207v35.31c0,15.007,11.476,26.483,26.483,26.483h158.897
	c15.007,0,26.483-11.476,26.483-26.483v-35.31c28.248-37.959,26.483-36.193,26.483-123.586l23.834-211.862
	c3.531-22.069-14.124-30.897-30.897-30.897s-26.483,14.124-30.897,30.897L371.709,256l35.31-207.448
	c3.531-23.834-14.124-30.897-30.897-30.897s-27.365,14.124-30.897,30.897l-35.31,189.793l-35.31-207.448
	C270.192,11.476,260.481,0,243.709,0c-16.772,0-30.897,14.124-30.897,30.897l35.31,198.621L220.757,72.386
	c-1.766-6.179-2.648-13.241-4.414-19.421c-3.531-13.241-14.124-19.421-28.248-19.421l0,0c-16.772,0-30.897,14.124-30.897,30.897
	l29.131,218.041c-17.655-23.835-55.614-75.917-84.745-91.807l0,0c-23.834-13.241-71.503,13.241-32.662,45.903
	c60.91,50.317,63.559,107.697,63.559,107.697C143.957,421.959,194.274,450.207,195.157,450.207L195.157,450.207z"/>
<g transform="translate(16 51)">
	<path style="fill:#FDC794;" d="M187.985,399.207h26.483"/>
	<path style="fill:#F9A671;" d="M214.467,408.034h-26.483c-5.297,0-8.828-3.531-8.828-8.828c0-5.297,3.531-8.828,8.828-8.828h26.483
		c5.297,0,8.828,3.531,8.828,8.828C223.295,404.503,219.764,408.034,214.467,408.034z"/>
</g>
<g transform="translate(37 51)">
	<path style="fill:#FDC794;" d="M361.192,399.207h-17.655"/>
	<path style="fill:#F9A671;" d="M361.192,408.034h-17.655c-5.297,0-8.828-3.531-8.828-8.828c0-5.297,3.531-8.828,8.828-8.828h17.655
		c5.297,0,8.828,3.531,8.828,8.828C370.019,404.503,366.488,408.034,361.192,408.034z"/>
</g>
<g transform="translate(15 32)">
	<path style="fill:#FDC794;" d="M171.329,250.483c0,19.421,11.476,35.31,26.483,35.31"/>
	<path style="fill:#F9A671;" d="M197.812,294.621c-19.421,0-35.31-19.421-35.31-44.138c0-5.297,3.531-8.828,8.828-8.828
		s8.828,3.531,8.828,8.828c0,14.124,7.945,26.483,17.655,26.483c5.297,0,8.828,3.531,8.828,8.828
		C206.64,291.09,203.109,294.621,197.812,294.621z"/>
</g>
<g transform="translate(20 26)">
	<path style="fill:#FDC794;" d="M228.123,203.517c0,9.71-3.531,17.655-8.828,17.655"/>
	<g>
		<path id="SVGCleanerId_0" style="fill:#F9A671;" d="M219.295,230c-5.297,0-8.828-3.531-8.828-8.828
			c0-4.414,2.648-7.945,7.062-8.828c0.883-0.883,1.766-4.414,1.766-8.828c0-5.297,3.531-8.828,8.828-8.828s8.828,3.531,8.828,8.828
			C236.95,218.524,229.888,230,219.295,230z"/>
	</g>
</g>
<g transform="translate(21 26)">
	<path style="fill:#FDC794;" d="M227.123,203.517c0,9.71,3.531,17.655,8.828,17.655"/>
	<path style="fill:#F9A671;" d="M235.95,230c-10.593,0-17.655-11.476-17.655-26.483c0-5.297,3.531-8.828,8.828-8.828
		s8.828,3.531,8.828,8.828c0,4.414,0.883,7.945,1.766,8.828c4.414,0.883,7.062,4.414,7.062,8.828
		C244.778,226.469,241.247,230,235.95,230z M238.598,213.228L238.598,213.228L238.598,213.228z"/>
</g>
<g transform="translate(27 27)">
	<path id="SVGCleanerId_1" style="fill:#FDC794;" d="M282.916,211.345c0,9.71-4.414,17.655-8.828,17.655"/>
	<g>
		<path id="SVGCleanerId_0_1_" style="fill:#F9A671;" d="M274.088,237.828c-5.297,0-8.828-3.531-8.828-8.828
			c0-4.414,2.648-7.945,7.062-8.828c0.883-0.883,1.766-4.414,1.766-8.828c0-5.297,3.531-8.828,8.828-8.828
			c5.297,0,8.828,3.531,8.828,8.828C291.743,226.352,284.681,237.828,274.088,237.828z"/>
	</g>
</g>
<g transform="translate(29 27)">
	<path id="SVGCleanerId_2" style="fill:#FDC794;" d="M280.916,211.345c0,9.71,3.531,17.655,8.828,17.655"/>
	<path id="SVGCleanerId_3" style="fill:#F9A671;" d="M289.743,237.828c-10.593,0-17.655-11.476-17.655-26.483
		c0-5.297,3.531-8.828,8.828-8.828c5.297,0,8.828,3.531,8.828,8.828c0,4.414,0.883,7.945,1.766,8.828
		c4.414,0.883,7.062,4.414,7.062,8.828C298.571,234.297,295.04,237.828,289.743,237.828z M292.392,221.055L292.392,221.055
		L292.392,221.055z"/>
</g>
<g transform="translate(34 29)">
	<g>
		<path id="SVGCleanerId_1_1_" style="fill:#FDC794;" d="M337.709,227c0,9.71-4.414,17.655-8.828,17.655"/>
	</g>
	<g>
		<path id="SVGCleanerId_0_2_" style="fill:#F9A671;" d="M328.881,253.483c-5.297,0-8.828-3.531-8.828-8.828
			c0-4.414,2.648-7.945,7.062-8.828c0.883-0.883,1.766-4.414,1.766-8.828c0-5.297,3.531-8.828,8.828-8.828
			c5.297,0,8.828,3.531,8.828,8.828C346.536,242.007,339.474,253.483,328.881,253.483z"/>
	</g>
</g>
<g transform="translate(36 29)">
	<g>
		<path id="SVGCleanerId_2_1_" style="fill:#FDC794;" d="M335.709,227c0,9.71,3.531,17.655,8.828,17.655"/>
	</g>
	<g>
		<path id="SVGCleanerId_3_1_" style="fill:#F9A671;" d="M344.536,253.483c-10.593,0-17.655-11.476-17.655-26.483
			c0-5.297,3.531-8.828,8.828-8.828c5.297,0,8.828,3.531,8.828,8.828c0,4.414,0.883,7.945,1.766,8.828
			c4.414,0.883,7.062,4.414,7.062,8.828C353.364,249.952,349.833,253.483,344.536,253.483z M347.185,236.71L347.185,236.71
			L347.185,236.71z"/>
	</g>
</g>
<g>
</g>
<g>
</g>
<g>
</g>
<g>
</g>
<g>
</g>
<g>
</g>
<g>
</g>
<g>
</g>
<g>
</g>
<g>
</g>
<g>
</g>
<g>
</g>
<g>
</g>
<g>
</g>
<g>
</g>
</svg>
