<?xml version="1.0" encoding="iso-8859-1"?>
<!-- Generator: Adobe Illustrator 19.0.0, SVG Export Plug-In . SVG Version: 6.00 Build 0)  -->
<svg version="1.1" id="Layer_1" xmlns="http://www.w3.org/2000/svg" xmlns:xlink="http://www.w3.org/1999/xlink" x="0px" y="0px"
	 viewBox="0 0 506.069 506.069" style="enable-background:new 0 0 506.069 506.069;" xml:space="preserve">
<g>
	<polygon style="fill:#D2D5D7;" points="271.897,157.485 34.858,394.523 118.517,478.182 355.556,241.144 	"/>
	<g>
		<polygon style="fill:#A5A4A4;" points="355.557,241.144 383.443,269.031 146.405,506.069 118.518,478.183 		"/>
		<path style="fill:#A5A4A4;" d="M90.632,404.382c-5.447,0-9.86-4.414-9.86-9.86c0-5.447,4.414-9.86,9.86-9.86s9.86,4.414,9.86,9.86
			C100.492,399.968,96.079,404.382,90.632,404.382"/>
	</g>
	<path style="fill:#A46F3E;" d="M460.133,11.078L460.133,11.078c15.21,15.21,14.689,40.024-1.139,54.59l-145.267,133.65
		l-41.834-41.834l133.65-145.267C420.108-3.611,444.923-4.132,460.133,11.078"/>
	<g>
		<path style="fill:#D2D5D7;" d="M355.557,125.514c-5.447,0-9.86-4.414-9.86-9.86c0-5.447,4.414-9.86,9.86-9.86
			s9.86,4.414,9.86,9.86C365.417,121.1,361.003,125.514,355.557,125.514"/>
		<path style="fill:#D2D5D7;" d="M411.33,69.74c-5.447,0-9.86-4.414-9.86-9.86s4.414-9.86,9.86-9.86c5.447,0,9.86,4.414,9.86,9.86
			S416.777,69.74,411.33,69.74"/>
	</g>
</g>
<g>
</g>
<g>
</g>
<g>
</g>
<g>
</g>
<g>
</g>
<g>
</g>
<g>
</g>
<g>
</g>
<g>
</g>
<g>
</g>
<g>
</g>
<g>
</g>
<g>
</g>
<g>
</g>
<g>
</g>
</svg>
