<?xml version="1.0" encoding="iso-8859-1"?>
<!-- Generator: Adobe Illustrator 19.0.0, SVG Export Plug-In . SVG Version: 6.00 Build 0)  -->
<svg version="1.1" id="Layer_1" xmlns="http://www.w3.org/2000/svg" xmlns:xlink="http://www.w3.org/1999/xlink" x="0px" y="0px"
	 viewBox="0 0 408.759 408.759" style="enable-background:new 0 0 408.759 408.759;" xml:space="preserve">
<g>
	<path style="fill:#FFBE00;" d="M204.383,408.759c-58.121,0-113.675-24.868-152.417-68.227
		C18.46,303.057,0.005,254.703,0.005,204.379C0.005,91.683,91.69,0,204.383,0c50.319,0,98.676,18.453,136.165,51.964
		c43.348,38.761,68.207,94.315,68.207,152.415C408.755,317.074,317.074,408.759,204.383,408.759"/>
	<path style="fill:#F4502A;" d="M377.75,204.379c0,1.62-0.02,3.239-0.07,4.849c-0.451,16.35-3.16,32.141-7.839,47.05
		c-20.39,65.09-78.11,113.66-148.081,120.61c-5.721,0.58-11.51,0.87-17.38,0.87c-2.74,0-5.47-0.059-8.169-0.199
		c-48.101-2.221-91.081-24.05-121.131-57.681c-0.259-0.29-0.519-0.589-0.789-0.879C47.339,288.439,31,248.317,31,204.379
		c0-95.751,77.619-173.381,173.38-173.381c43.949,0,84.069,16.35,114.631,43.29c0.29,0.27,0.589,0.53,0.879,0.79
		C355.4,106.838,377.75,152.989,377.75,204.379"/>
	<path style="fill:#C29100;" d="M74.571,319.306c0.128,0.144,0.258,0.29,0.386,0.434C74.829,319.596,74.701,319.451,74.571,319.306
		 M53.81,118.358c-0.032,0.057-0.065,0.113-0.097,0.17C53.745,118.472,53.777,118.415,53.81,118.358 M54.208,117.667
		c-0.079,0.137-0.157,0.273-0.236,0.41C54.05,117.939,54.129,117.804,54.208,117.667 M81.671,81.891
		c-10.614,10.634-19.86,22.646-27.439,35.734C61.81,104.537,71.056,92.526,81.671,81.891 M81.892,81.669
		c-0.035,0.034-0.076,0.076-0.111,0.11C81.82,81.741,81.854,81.708,81.892,81.669"/>
	<path style="fill:#BA3D20;" d="M204.383,30.999c-47.828,0-91.125,19.357-122.491,50.67c-0.038,0.038-0.072,0.072-0.111,0.11
		c-0.038,0.038-0.073,0.073-0.111,0.111c-10.614,10.635-19.86,22.646-27.439,35.734c-0.008,0.014-0.016,0.027-0.024,0.042
		c-0.079,0.137-0.157,0.273-0.236,0.41c-0.054,0.094-0.107,0.187-0.162,0.282c-0.032,0.057-0.065,0.113-0.097,0.17
		c-14.451,25.309-22.708,54.61-22.708,85.841c0,44.096,16.454,84.344,43.567,114.937c0.13,0.145,0.258,0.29,0.386,0.434
		c5.428,6.084,11.278,11.781,17.506,17.049c-25.53-30.2-40.919-69.239-40.919-111.88c0-95.751,77.619-173.37,173.38-173.37
		c42.631,0,81.68,15.39,111.87,40.919C305.004,54.869,257.484,30.999,204.383,30.999"/>
	<path style="fill:#BA3D20;" d="M292.206,123.754c1.66,1.793,5.419,6.389,5.469,6.454c0.019,0.024,0.037,0.047,0.055,0.072
		c0.053,0.069,0.107,0.138,0.159,0.207c0.004,0.005,0.008,0.01,0.012,0.015c0.062,0.081,0.2,0.262,0.207,0.27
		c11.262,14.758-161.012,187.155-165.264,183.421l63.367,63.367c2.7,0.14,5.429,0.199,8.169,0.199c5.87,0,11.659-0.29,17.38-0.87
		c69.97-6.951,127.69-55.521,148.081-120.61c4.679-14.91,7.388-30.7,7.839-47.05L292.206,123.754 M242.49,78.059l-4.434,16.272
		c0.913,0.157,1.821,0.326,2.724,0.508c6.86,1.379,13.46,3.499,19.709,6.26c3.602,1.59,7.089,3.397,10.442,5.401L242.49,78.059"/>
	<path style="fill:#F4CC90;" d="M284.95,261.188v0.009c-9.97,8.74-21.779,15.441-34.759,19.462c-3.402,1.06-6.892,1.93-10.441,2.6
		c-4.591,9.039-12.819,16.049-23.081,18.898l-61.699,17.111c-15.199,4.21-30.229-7.22-30.229-23v-27.45
		c0-3.961-3.211-7.17-7.17-7.17h-7.11c-7.82,0-12.681-8.489-8.731-15.229l16.001-27.291c5.329-9.089,8.029-19.449,8.009-29.98
		v-0.829c0.041-7.021,0.851-13.861,2.36-20.451"/>
	<path style="fill:#BA3D20;" d="M282.531,114.648c0.002,0.002,0.005,0.005,0.006,0.008c3.423,2.804,6.651,5.842,9.655,9.085
		l0.014,0.014C289.195,120.501,285.962,117.458,282.531,114.648"/>
	<path style="fill:#8E2E18;" d="M298.087,130.743c0.007,0.009,0.014,0.019,0.021,0.027
		C298.102,130.763,298.092,130.751,298.087,130.743 M297.89,130.486c0.004,0.005,0.008,0.01,0.012,0.015
		C297.897,130.496,297.894,130.491,297.89,130.486 M297.674,130.208c0.019,0.025,0.036,0.047,0.055,0.072
		C297.711,130.255,297.693,130.232,297.674,130.208 M297.441,129.907c0.027,0.035,0.055,0.071,0.083,0.106
		C297.496,129.977,297.469,129.943,297.441,129.907 M297.26,129.676c0.031,0.04,0.063,0.08,0.094,0.12
		C297.323,129.756,297.292,129.716,297.26,129.676 M297.007,129.356c0.069,0.087,0.14,0.177,0.208,0.264
		C297.146,129.532,297.077,129.443,297.007,129.356 M292.191,123.74c1.665,1.797,3.261,3.659,4.786,5.58
		c-1.521-1.916-3.113-3.773-4.773-5.566L292.191,123.74"/>
	<path style="fill:#BA3D20;" d="M128.099,167.867L128.099,167.867c-1.866,0.108-2.969,0.111-3.028,0.111l-0.003,0.002l2.477,2.476
		C127.718,169.589,127.903,168.726,128.099,167.867L128.099,167.867"/>
	<path style="fill:#BA9B6E;" d="M175.74,146.648c-11.03,17.65-38.48,20.69-47.641,21.22l0,0c-0.197,0.859-0.381,1.722-0.554,2.589
		l92.337,92.337c4.253,4.253,4.969,10.779,2.02,16.019l-0.05,0.089c-6.232,11.187-20.608,27.535-66.883,40.367l61.699-17.111
		c10.262-2.849,18.49-9.859,23.081-18.9c3.549-0.668,7.039-1.538,10.441-2.598c0.103-0.032,0.208-0.065,0.311-0.097
		c0.019-0.006,0.039-0.012,0.058-0.018c0.083-0.026,0.167-0.053,0.25-0.079c0.031-0.01,0.062-0.02,0.093-0.03
		c0.073-0.023,0.145-0.046,0.218-0.07c0.032-0.01,0.063-0.02,0.094-0.03c0.072-0.023,0.141-0.045,0.212-0.068
		c0.039-0.013,0.077-0.025,0.115-0.038c0.065-0.021,0.128-0.042,0.193-0.063c0.037-0.012,0.073-0.024,0.11-0.036
		c0.068-0.022,0.132-0.043,0.2-0.066c0.035-0.012,0.073-0.024,0.108-0.036c0.067-0.022,0.134-0.045,0.2-0.067
		c0.034-0.011,0.067-0.023,0.101-0.034c0.071-0.024,0.139-0.047,0.211-0.071c0.031-0.01,0.062-0.021,0.092-0.031
		c0.073-0.025,0.145-0.049,0.217-0.074c0.028-0.01,0.054-0.019,0.082-0.028c0.076-0.026,0.151-0.052,0.227-0.078
		c0.027-0.009,0.052-0.018,0.078-0.027c0.077-0.027,0.155-0.054,0.232-0.081c0.022-0.008,0.045-0.016,0.067-0.024
		c0.081-0.028,0.16-0.056,0.24-0.085c0.023-0.008,0.044-0.016,0.067-0.024c0.082-0.029,0.163-0.058,0.245-0.088
		c0.017-0.006,0.034-0.012,0.051-0.018c0.088-0.032,0.176-0.063,0.264-0.095c0.012-0.004,0.022-0.008,0.034-0.012
		c0.093-0.034,0.189-0.069,0.281-0.103c0.005-0.002,0.01-0.004,0.015-0.005c0.096-0.035,0.195-0.072,0.291-0.107
		c0.006-0.002,0.01-0.004,0.017-0.006c8.267-3.07,16-7.249,23.012-12.352c0.034-0.025,0.068-0.05,0.102-0.074
		c0.043-0.032,0.089-0.065,0.132-0.097c1.46-1.07,2.888-2.18,4.284-3.329c0.762-0.628,1.514-1.267,2.256-1.917
		c0,0-1.919,0.974-3.07,1.248s-2.423,0.407-3.796,0.407c-8.197,0-20.017-4.722-31.353-12.221c-1.011,0.232-2.029,0.424-3.052,0.577
		c-1.967,0.294-3.953,0.441-5.938,0.441c-10.234,0-20.467-3.907-28.282-11.722c-12.617-12.61-15.05-31.539-7.296-46.585
		C181.695,177.909,175.74,146.648,175.74,146.648"/>
	<path style="fill:#8E2E18;" d="M317.739,188.562c0,0.024,0,0.049,0,0.073C317.74,188.612,317.739,188.586,317.739,188.562
		 M317.737,188.219c0,0.012,0,0.023,0,0.035C317.738,188.244,317.738,188.23,317.737,188.219 M317.734,187.863
		c0,0.024,0,0.051,0.001,0.075C317.734,187.914,317.734,187.886,317.734,187.863 M317.73,187.512c0,0.014,0,0.031,0.001,0.045
		C317.73,187.543,317.73,187.527,317.73,187.512 M317.724,187.171c0,0.021,0.001,0.046,0.001,0.067
		C317.725,187.216,317.724,187.193,317.724,187.171 M317.717,186.811c0,0.017,0.001,0.035,0.001,0.051
		C317.717,186.844,317.717,186.829,317.717,186.811 M317.709,186.472c0,0.024,0.001,0.046,0.002,0.07
		C317.71,186.518,317.709,186.496,317.709,186.472 M317.699,186.112c0,0.019,0.001,0.037,0.001,0.056
		C317.7,186.149,317.7,186.13,317.699,186.112 M317.689,185.787c0,0.014,0.001,0.03,0.001,0.044
		C317.69,185.815,317.69,185.804,317.689,185.787 M317.677,185.428c0,0.012,0.001,0.029,0.001,0.041
		C317.678,185.454,317.677,185.442,317.677,185.428 M317.664,185.099c0,0.005,0,0.016,0.001,0.02
		C317.665,185.112,317.665,185.107,317.664,185.099 M317.648,184.736c0.001,0.012,0.001,0.024,0.002,0.036
		C317.651,184.759,317.65,184.749,317.648,184.736 M317.617,184.047c0.001,0.012,0.001,0.019,0.002,0.031
		C317.618,184.067,317.618,184.057,317.617,184.047 M317.579,183.36c0,0.007,0.001,0.014,0.001,0.021
		C317.581,183.374,317.581,183.367,317.579,183.36"/>
	<path style="fill:#4D4D4D;" d="M317.74,188.948c0,13.58-2.82,26.51-7.92,38.219c-5.7,13.13-14.25,24.73-24.87,34.02
		c-15.877,10.127-76.543-27.873-71.88-61.869c-29.33-10.672-37.33-52.671-37.33-52.671c-11.03,17.65-38.48,20.69-47.641,21.22
		c-1.919,0.111-3.031,0.111-3.031,0.111c9.34-83.999,95.251-75.019,95.251-75.019c7.021-0.102,13.861,0.548,20.461,1.88
		c6.86,1.379,13.46,3.499,19.709,6.26C294.211,115.988,317.74,149.719,317.74,188.948"/>
	<path style="fill:#FFBE00;" d="M277.299,217.588c-1.219,8.181-4.979,16.051-11.279,22.34c-6.29,6.301-14.16,10.06-22.34,11.281
		c-12.11,1.81-24.889-1.95-34.22-11.281c-15.63-15.621-15.63-40.94,0-56.56c15.621-15.63,40.939-15.63,56.56,0
		C275.349,192.699,279.111,205.477,277.299,217.588"/>
	<path style="fill:#FFBE00;" d="M237.24,76.648L237.24,76.648c-5.799,0-10.5,4.701-10.5,10.5v91.5h21v-91.5
		C247.74,81.349,243.039,76.648,237.24,76.648z"/>
	<path style="fill:#C29100;" d="M254.551,194.839l-33.622,33.62l22.75,22.75c8.18-1.221,16.051-4.98,22.34-11.281
		c6.301-6.29,10.061-14.16,11.279-22.34L254.551,194.839"/>
	<circle style="fill:#F4502A;" cx="237.74" cy="211.648" r="23.772"/>
</g>
<g>
</g>
<g>
</g>
<g>
</g>
<g>
</g>
<g>
</g>
<g>
</g>
<g>
</g>
<g>
</g>
<g>
</g>
<g>
</g>
<g>
</g>
<g>
</g>
<g>
</g>
<g>
</g>
<g>
</g>
</svg>
