<?xml version="1.0" encoding="iso-8859-1"?>
<!-- Generator: Adobe Illustrator 19.0.0, SVG Export Plug-In . SVG Version: 6.00 Build 0)  -->
<svg version="1.1" id="Layer_1" xmlns="http://www.w3.org/2000/svg" xmlns:xlink="http://www.w3.org/1999/xlink" x="0px" y="0px"
	 viewBox="0 0 512 512" style="enable-background:new 0 0 512 512;" xml:space="preserve">
<rect x="425.099" y="52.214" style="fill:#4D4D4D;" width="12.673" height="100.208"/>
<path style="fill:#F7B239;" d="M437.766,459.786c-42.547,32.404-95.546,51.791-153.05,52.208
	c-140.781,1.02-256.765-113.098-257.898-253.877c-0.142-17.656,1.495-34.907,4.756-51.568c1.483-7.591,3.308-15.056,5.45-22.381
	l123.298-15.271l82.858,58.006c0.003,0.005,0.004,0.009,0.006,0.014c-1.346,9.045,0.83,18.051,5.709,25.434
	c2.56,3.878,5.855,7.312,9.796,10.063l37.026,25.807c5.723,3.988,5.252,12.604-0.872,15.944l-29.208,15.933
	c-7.006,3.822-9.846,12.398-6.564,19.673C290.096,408.527,358.122,456.995,437.766,459.786z"/>
<path style="fill:#E09B2D;" d="M101.077,256c0-11.471,0.778-22.755,2.241-33.824l145.578,30.174
	c-4.841-7.325-7.021-16.247-5.741-25.22c0-0.076,0.013-0.152,0.025-0.228l-81.59-44.065l-124.566,1.331
	C30.819,205.416,26.809,229.514,26.809,256c0,141.383,114.617,256,256.013,256c12.626,0,25.039-0.918,37.176-2.684
	C196.183,491.346,101.077,384.786,101.077,256z"/>
<path style="fill:#2BA5F7;" d="M437.766,52.214C394.753,19.466,341.056,0,282.823,0C197.202,0,121.391,42.037,74.918,106.595v0.013
	l-33.179-6.882c-8.415-1.749-16.665,3.663-18.402,12.09l-10.658,51.39c-1.749,8.428,3.663,16.678,12.09,18.414l12.255,2.547
	l206.156,42.734l25.651,5.323c8.428,1.749,16.678-3.663,18.414-12.09l10.658-51.403c1.749-8.415-3.663-16.665-12.09-18.414
	l-13.484-2.788C307.206,92.109,368.038,54.66,437.766,52.214z"/>
<path style="fill:#333333;" d="M180.999,292.547c20.375,0,36.951-16.577,36.951-36.951c0-5.249-4.256-9.505-9.505-9.505
	s-9.505,4.256-9.505,9.505c0,9.893-8.049,17.942-17.942,17.942c-9.893,0-17.942-8.049-17.942-17.942
	c0-5.249-4.256-9.505-9.505-9.505s-9.505,4.256-9.505,9.505C144.048,275.971,160.624,292.547,180.999,292.547z"/>
<polygon style="fill:#F95428;" points="499.65,188.046 465.546,221.301 473.593,268.255 431.429,246.089 389.265,268.255 
	397.313,221.301 363.209,188.046 410.354,181.202 431.429,138.481 452.518,181.202 "/>
<path style="fill:#2197D8;" d="M282.823,0C197.202,0,121.391,42.037,74.918,106.595v0.013l-33.179-6.882
	c-8.415-1.749-16.665,3.663-18.402,12.09l-10.658,51.39c-1.749,8.428,3.663,16.678,12.09,18.414l12.255,2.547l44.152,9.153
	c-5.891-3.291-9.243-10.18-7.802-17.19l10.81-52.613c0.079-0.388,0.171-0.768,0.276-1.143c2.043-7.28,9.723-11.453,17.101-9.8
	l61.927,13.867C201.313,73.9,263.273,16.433,329.435,4.248C314.319,1.465,298.742,0,282.823,0z"/>
<g>
</g>
<g>
</g>
<g>
</g>
<g>
</g>
<g>
</g>
<g>
</g>
<g>
</g>
<g>
</g>
<g>
</g>
<g>
</g>
<g>
</g>
<g>
</g>
<g>
</g>
<g>
</g>
<g>
</g>
</svg>
