<?xml version="1.0" encoding="iso-8859-1"?>
<!-- Generator: Adobe Illustrator 19.0.0, SVG Export Plug-In . SVG Version: 6.00 Build 0)  -->
<svg version="1.1" id="Layer_1" xmlns="http://www.w3.org/2000/svg" xmlns:xlink="http://www.w3.org/1999/xlink" x="0px" y="0px"
	 viewBox="0 0 512 512" style="enable-background:new 0 0 512 512;" xml:space="preserve">
<path style="fill:#E1E1E3;" d="M255.999,89.733c-5.351,0-9.69-4.338-9.69-9.69V41.402c0-5.351,4.338-9.69,9.69-9.69
	c5.351,0,9.69,4.338,9.69,9.69v38.642C265.689,85.395,261.351,89.733,255.999,89.733z"/>
<path style="fill:#D9D9DB;" d="M279.218,180.241h-45.143V84.315c0-3.695,2.996-6.691,6.691-6.691h31.761
	c3.695,0,6.691,2.996,6.691,6.691V180.241L279.218,180.241z"/>
<g>
	<path style="fill:#EDA156;" d="M275.582,31c0,10.459-8.478,18.937-18.937,18.937c-10.459,0-18.937-8.478-18.937-18.937
		s18.937-31,18.937-31S275.582,20.541,275.582,31z"/>
	<path style="fill:#EDA156;" d="M401.801,367.43c15.012,0,27.179-12.169,27.179-27.179c0-95.536-77.447-172.981-172.981-172.981
		S83.018,244.715,83.018,340.249c0,15.012,12.169,27.179,27.179,27.179h291.603V367.43z"/>
</g>
<path style="fill:#DD8E40;" d="M255.999,167.268c-10.813,0-21.39,1.001-31.654,2.899c80.417,14.872,141.329,85.36,141.329,170.082
	c0,15.012-12.169,27.179-27.181,27.179h63.307c15.012,0,27.181-12.169,27.181-27.179
	C428.982,244.715,351.534,167.268,255.999,167.268z"/>
<path style="fill:#F9DE8F;" d="M408.438,258.43c-29.188-54.267-86.502-91.162-152.439-91.162
	c-73.097,0-135.603,45.34-160.933,109.431c8.182,8.185,14.545,11.001,23.983,10.497c24.881-1.327,31.862-41.855,57.493-43.281
	c28.3-1.575,39.028,46.756,67.829,45.865c28.616-0.885,38.393-49.227,63.307-47.157c21.438,1.78,24.682,38.443,48.449,43.927
	C373.256,290.501,392.125,276.207,408.438,258.43z"/>
<path style="fill:#F7CF6D;" d="M255.999,167.268c-10.809,0-21.378,1.015-31.639,2.912c47.371,8.767,87.974,36.823,113.339,75.73
	c4.744,7.276,3.545,16.991-2.86,22.858l-0.106,0.097c5.475,8.087,11.743,15.457,21.397,17.685
	c17.128,3.952,35.997-10.342,52.31-28.12C379.249,204.162,321.936,167.268,255.999,167.268z"/>
<path style="fill:#88E2E2;" d="M139.872,501.408L113.509,367.43h286.014L373.16,501.408c-1.211,6.154-6.607,10.592-12.88,10.592
	H152.752C146.479,512,141.083,507.563,139.872,501.408z"/>
<polygon style="fill:#67D1D3;" points="186.032,512 168.497,367.43 344.794,367.43 327.259,512 "/>
<polygon style="fill:#88E2E2;" points="231.806,512 225.638,367.43 287.653,367.43 281.485,512 "/>
<polygon style="fill:#59D3C4;" points="394.566,392.623 399.523,367.43 113.509,367.43 118.466,392.623 "/>
<g>
	<circle style="fill:#F7CF6D;" cx="120.826" cy="265.632" r="7.322"/>
	<circle style="fill:#F7CF6D;" cx="239.21" cy="265.632" r="7.322"/>
	<circle style="fill:#F7CF6D;" cx="279.223" cy="227.234" r="7.322"/>
	<circle style="fill:#F7CF6D;" cx="237.375" cy="196.885" r="7.322"/>
	<circle style="fill:#F7CF6D;" cx="222.724" cy="231.782" r="7.322"/>
	<circle style="fill:#F7CF6D;" cx="190.024" cy="204.198" r="7.322"/>
	<circle style="fill:#F7CF6D;" cx="151.988" cy="231.782" r="7.322"/>
</g>
<g>
</g>
<g>
</g>
<g>
</g>
<g>
</g>
<g>
</g>
<g>
</g>
<g>
</g>
<g>
</g>
<g>
</g>
<g>
</g>
<g>
</g>
<g>
</g>
<g>
</g>
<g>
</g>
<g>
</g>
</svg>
