<?xml version="1.0" encoding="iso-8859-1"?>
<!-- Generator: Adobe Illustrator 19.0.0, SVG Export Plug-In . SVG Version: 6.00 Build 0)  -->
<svg version="1.1" id="Layer_1" xmlns="http://www.w3.org/2000/svg" xmlns:xlink="http://www.w3.org/1999/xlink" x="0px" y="0px"
	 viewBox="0 0 300.725 300.725" style="enable-background:new 0 0 300.725 300.725;" xml:space="preserve">
<g>
	<g>
		<path d="M293.967,150.108h-71.563L155.98,50.382c-2.669-4.008-8.567-4.007-11.236,0l-34.209,51.371
			c-0.001,0.001-0.001,0.002-0.002,0.003L78.32,150.109H6.758c-5.078,0-8.353,5.424-5.958,9.922l47.791,89.739
			c1.145,2.147,3.467,3.578,5.957,3.578h0.001h191.628h0.001c2.478,0,4.807-1.419,5.957-3.578l47.791-89.739
			C302.32,155.53,299.042,150.108,293.967,150.108z M150.363,66.301l55.82,83.807c-14.813,0-33.209,0-48.066,0l-33.697-44.849
			L150.363,66.301z M116.485,117.173l24.745,32.935c-9.266,0-36.804,0-46.688,0L116.485,117.173z M18,163.608
			c8.96,0,79.134,0,89.163,0l-51.7,70.346L18,163.608z M67.886,239.847l56.031-76.239c6.724,0,46.785,0,52.891,0l56.031,76.239
			H67.886z M245.261,233.954l-51.7-70.346c10.037,0,80.197,0,89.163,0L245.261,233.954z"/>
	</g>
</g>
<g>
</g>
<g>
</g>
<g>
</g>
<g>
</g>
<g>
</g>
<g>
</g>
<g>
</g>
<g>
</g>
<g>
</g>
<g>
</g>
<g>
</g>
<g>
</g>
<g>
</g>
<g>
</g>
<g>
</g>
</svg>
