<svg version="1.1" id="Layer_1" xmlns="http://www.w3.org/2000/svg" xmlns:xlink="http://www.w3.org/1999/xlink" x="0px" y="0px"
	 viewBox="0 0 512 512" style="enable-background:new 0 0 512 512;" xml:space="preserve">
<g>
	<g>
		<path fill="#eaeaea" d="M495.664,318.553l-17.338-31.233l-67.478,37.458l-24.212-13.979l24.58-12.153l-15.833-32.02l-45.925,22.709l-29.963-17.3
			c1.298-5.133,1.993-10.503,1.993-16.035s-0.695-10.902-1.993-16.035l29.963-17.3l45.925,22.709l15.833-32.02l-24.58-12.154
			l24.212-13.979l67.478,37.458l17.338-31.231l-48.739-27.056l39.707-22.924l-17.86-30.934l-39.707,22.924l0.938-55.737l-35.716-0.6
			l-1.298,77.167l-24.212,13.979l1.765-27.362l-35.647-2.299l-3.297,51.126l-30.004,17.323
			c-7.675-7.455-17.163-13.044-27.733-16.046v-34.611l42.628-28.42l-19.814-29.723l-22.814,15.209V87.508l66.179-39.707
			L321.661,17.17L273.86,45.85V0H238.14v45.85l-47.801-28.68l-18.378,30.631l66.179,39.707v27.956l-22.814-15.209l-19.814,29.721
			l42.628,28.42v34.611c-10.57,3.002-20.057,8.591-27.733,16.046l-30.004-17.323l-3.297-51.126l-35.647,2.299l1.765,27.362
			l-24.212-13.979l-1.298-77.167l-35.716,0.6l0.938,55.737l-39.707-22.923l-17.86,30.934l39.707,22.924l-48.739,27.057
			l17.338,31.231l67.478-37.458l24.212,13.979l-24.58,12.154l15.833,32.02l45.925-22.709l29.963,17.3
			c-1.298,5.133-1.993,10.503-1.993,16.035s0.695,10.902,1.993,16.035l-29.963,17.3l-45.925-22.709l-15.833,32.02l24.58,12.153
			l-24.212,13.979L33.674,287.32l-17.338,31.231l48.739,27.056l-39.707,22.926l17.86,30.934l39.707-22.924l-0.938,55.737l35.716,0.6
			l1.298-77.167l24.212-13.979l-1.765,27.362l35.647,2.299l3.297-51.126l30.004-17.323c7.675,7.455,17.163,13.044,27.733,16.046
			v34.611l-42.628,28.42l19.814,29.721l22.814-15.208v27.956l-66.179,39.707l18.378,30.631l47.801-28.68V512h35.721v-45.85
			l47.801,28.68l18.378-30.631l-66.179-39.707v-27.956l22.814,15.209l19.814-29.721l-42.628-28.42v-34.611
			c10.57-3.002,20.057-8.591,27.733-16.046l30.004,17.323l3.297,51.126l35.647-2.299l-1.765-27.362l24.212,13.979l1.298,77.167
			l35.716-0.6l-0.938-55.737l39.707,22.924l17.86-30.934l-39.707-22.924L495.664,318.553z"/>
	</g>
</g>
</svg>
