<?xml version="1.0" encoding="iso-8859-1"?>
<!-- Generator: Adobe Illustrator 18.1.1, SVG Export Plug-In . SVG Version: 6.00 Build 0)  -->
<svg version="1.1" id="Capa_1" xmlns="http://www.w3.org/2000/svg" xmlns:xlink="http://www.w3.org/1999/xlink" x="0px" y="0px"
	 viewBox="0 0 612 612" style="enable-background:new 0 0 612 612;" xml:space="preserve">
<g>
	<path d="M612,293.728H447.507V154.556L293.727,0.001v164.493H154.555L0,318.274h164.493v139.172l153.778,154.553V447.506h139.172
		L612,293.728z M552.529,318.274l-100.128,99.625l-93.271-93.271c0.726-2.067,1.332-4.187,1.818-6.356h191.581V318.274z
		 M306,337.767c-17.515,0-31.766-14.249-31.766-31.766s14.249-31.766,31.766-31.766c17.517,0,31.766,14.249,31.766,31.766
		S323.515,337.767,306,337.767z M360.948,293.728c-2.356-10.556-7.672-20.007-15.047-27.42l77.058-77.058v104.478L360.948,293.728
		L360.948,293.728z M318.273,59.472L417.9,159.6l-93.271,93.271c-2.067-0.726-4.187-1.332-6.356-1.816V59.472z M293.727,251.053
		c-10.556,2.356-20.007,7.672-27.42,15.045l-77.058-77.058h104.476v62.014H293.727z M59.471,293.728l100.128-99.625l93.271,93.271
		c-0.726,2.067-1.332,4.187-1.816,6.356H59.471V293.728z M251.052,318.274c2.356,10.556,7.672,20.007,15.045,27.42l-77.058,77.058
		V318.274H251.052z M293.727,552.53l-99.625-100.126l93.271-93.271c2.067,0.726,4.187,1.332,6.356,1.816V552.53H293.727z
		 M318.273,360.949c10.556-2.356,20.007-7.672,27.42-15.047l77.058,77.058H318.273V360.949L318.273,360.949z"/>
</g>
<g>
</g>
<g>
</g>
<g>
</g>
<g>
</g>
<g>
</g>
<g>
</g>
<g>
</g>
<g>
</g>
<g>
</g>
<g>
</g>
<g>
</g>
<g>
</g>
<g>
</g>
<g>
</g>
<g>
</g>
</svg>
